<svg xmlns="http://www.w3.org/2000/svg" xmlns:xlink="http://www.w3.org/1999/xlink" id="Layer_1" x="0px" y="0px" viewBox="0 0 257 231" style="enable-background:new 0 0 257 231;" xml:space="preserve"><style type="text/css">	.st0{fill:#79CAEB;}</style><g>	<path class="st0" d="M137.7,39.33c13.3,0,26.61,0,39.91,0c0.5,0,1-0.02,1.5,0.02c1.44,0.13,2.26,0.97,2.33,2.37  c0.06,1.41-0.76,2.29-2.14,2.56c-0.54,0.11-1.11,0.06-1.66,0.06c-26.72,0-53.44,0-80.16,0c-0.5,0-1.01,0.03-1.5-0.04  c-1.43-0.2-2.35-1.27-2.24-2.63c0.12-1.43,0.96-2.2,2.37-2.32c0.5-0.04,1-0.02,1.5-0.02C110.98,39.33,124.34,39.33,137.7,39.33z"></path>	<g>		<path class="st0" d="M70.38,201c-0.3-0.12-0.6-0.26-0.91-0.36c-3.89-1.26-6.34-4.52-6.4-8.63c-0.05-3.28-0.01-6.57-0.01-9.85   c0-47.48,0-94.96,0-142.44c0-5.05,2.76-8.65,7.34-9.55c0.76-0.15,1.55-0.16,2.32-0.16C109.91,30,147.1,30,184.29,30   c5.95,0,9.66,3.72,9.66,9.71c0.01,22.93,0,45.86,0,68.8c0,0.61,0.02,1.24-0.15,1.82c-0.35,1.2-1.23,1.88-2.49,1.79   c-1.32-0.09-2.14-0.86-2.33-2.2c-0.07-0.55-0.03-1.11-0.03-1.67c0-17.48,0-34.96,0-52.43c0-0.65,0-1.31,0-2.07   c-40.32,0-80.49,0-120.87,0c0,0.62,0,1.22,0,1.81c0,45.09,0,90.17,0,135.26c0,3.87,1.32,5.17,5.24,5.17c36.8,0,73.6,0,110.39,0   c3.91,0,5.23-1.3,5.23-5.18c0-22.71,0-45.42,0-68.13c0-2.6,0.75-3.78,2.42-3.83c1.75-0.05,2.59,1.2,2.59,3.85   c0,22.43,0,44.86,0,67.29c0,6.41-1.46,8.6-7.32,11C147.88,201,109.13,201,70.38,201z M86.53,48.49c34.2,0,68.26,0,102.3,0   c0.05-0.26,0.1-0.37,0.1-0.47c0.01-2.67,0.02-5.34,0.02-8.01c0-3.64-1.38-5-5.07-5c-31.83,0-63.66,0-95.49,0   c-0.59,0-1.19,0-1.85,0C86.53,39.59,86.53,43.97,86.53,48.49z M81.33,48.56c0-4.61,0-9.02,0-13.54c-3.27,0-6.43-0.06-9.58,0.02   c-1.82,0.05-3.44,1.38-3.54,3.18c-0.18,3.41-0.05,6.84-0.05,10.33C72.61,48.56,76.91,48.56,81.33,48.56z"></path>		<path class="st0" d="M110.99,95.93c0.64-5.32,3.34-8.41,8.23-9.79c-1.77-3.19-2.34-6.48-1.06-9.93c0.84-2.27,2.28-4.07,4.29-5.4   c4.01-2.65,9.4-2.35,13.07,0.72c4.2,3.51,4.98,8.19,2.35,14.62c4.75,1.32,7.52,4.43,8.14,9.66c1.92-2.87,2.9-5.78,3.18-8.9   c0.92-10.39-4.92-19.05-14.87-22.2c-1.88-0.6-2.76-1.79-2.38-3.22c0.42-1.56,1.82-2.15,3.78-1.59   c11.85,3.37,19.39,14.47,18.51,27.23c-0.8,11.51-10.26,21.38-22.16,23.1c-13.37,1.94-26.14-7.05-28.87-20.33   c-2.71-13.17,5.28-26.39,18.14-30.02c2.2-0.62,3.92,0.4,3.81,2.3c-0.1,1.62-1.28,2.14-2.64,2.58   c-7.39,2.41-12.22,7.36-14.17,14.89C106.9,85.24,107.79,90.56,110.99,95.93z M116.12,98.11c-0.01,3.71-0.03,3.75,3.39,5.32   c6.51,2.99,12.91,2.72,19.25-0.62c1.62-0.85,2.46-1.87,2.16-3.77c-0.16-1.03,0-2.11-0.04-3.17c-0.11-2.7-2.1-4.74-4.81-4.78   c-5.07-0.06-10.13-0.06-15.2,0c-2.69,0.04-4.64,2.11-4.75,4.83C116.1,96.66,116.12,97.39,116.12,98.11z M134.52,80.07   c0.02-3.35-2.65-6.03-6.01-6.03c-3.3,0-5.96,2.59-6.01,5.86c-0.06,3.33,2.6,6.1,5.92,6.16C131.71,86.12,134.49,83.38,134.52,80.07   z"></path>		<path class="st0" d="M95.4,155.59c3.95,0,7.9-0.01,11.85,0c3.85,0.02,6.28,2.38,6.31,6.22c0.04,6.29,0.04,12.58,0,18.86   c-0.03,3.6-2.28,6.08-5.89,6.13c-8.23,0.12-16.47,0.11-24.71,0.01c-3.7-0.05-5.95-2.52-5.97-6.22c-0.03-6.29-0.04-12.57,0-18.86   c0.02-3.73,2.48-6.12,6.22-6.14C87.28,155.57,91.34,155.59,95.4,155.59z M95.31,160.6c-3.84,0-7.67,0.03-11.51-0.02   c-1.23-0.02-1.83,0.3-1.82,1.67c0.05,6,0.04,12.01,0.01,18.01c-0.01,1.16,0.48,1.59,1.59,1.59c7.79-0.01,15.57-0.02,23.36,0   c1.21,0,1.66-0.48,1.66-1.7c-0.04-5.95-0.04-11.9,0-17.85c0.01-1.3-0.46-1.76-1.76-1.74C102.98,160.64,99.14,160.6,95.31,160.6z"></path>		<path class="st0" d="M95.29,118.13c4.01,0,8.01-0.01,12.02,0c3.87,0.02,6.23,2.35,6.26,6.24c0.04,6.23,0.04,12.46,0,18.69   c-0.03,3.88-2.38,6.21-6.28,6.23c-8.01,0.03-16.03,0.04-24.04,0c-3.9-0.02-6.23-2.37-6.25-6.25c-0.03-6.23-0.03-12.46,0-18.69   c0.02-3.88,2.39-6.2,6.27-6.22C87.27,118.12,91.28,118.13,95.29,118.13z M95.32,144.31c3.84,0,7.68-0.04,11.52,0.02   c1.31,0.02,1.75-0.47,1.74-1.76c-0.04-5.9-0.04-11.8,0-17.7c0.01-1.28-0.41-1.76-1.74-1.75c-7.68,0.05-15.37,0.05-23.05,0   c-1.4-0.01-1.84,0.46-1.83,1.83c0.05,5.84,0.05,11.69,0,17.53c-0.01,1.37,0.43,1.87,1.82,1.85   C87.63,144.26,91.47,144.31,95.32,144.31z"></path>		<path class="st0" d="M149.16,141.13c8.24,0,16.47,0,24.71,0c0.56,0,1.12-0.03,1.67,0.05c1.26,0.19,1.99,0.96,2.09,2.22   c0.1,1.26-0.49,2.17-1.71,2.53c-0.63,0.18-1.32,0.2-1.98,0.2c-16.58,0.01-33.16,0.01-49.75,0c-0.66,0-1.35-0.01-1.98-0.18   c-1.32-0.36-1.9-1.32-1.76-2.65c0.13-1.27,0.9-2.04,2.17-2.12c1.33-0.09,2.67-0.05,4-0.05   C134.14,141.13,141.65,141.13,149.16,141.13z"></path>		<path class="st0" d="M148.88,158.86c8.35,0,16.69,0,25.04,0c0.56,0,1.26-0.19,1.64,0.08c0.78,0.56,1.84,1.31,1.94,2.09   c0.1,0.79-0.67,1.88-1.37,2.49c-0.48,0.42-1.48,0.33-2.24,0.33c-16.58,0.02-33.16,0.01-49.75,0.01c-0.22,0-0.45,0.01-0.67,0   c-1.98-0.06-3.05-0.97-3.05-2.56c0.01-1.6,1.04-2.45,3.08-2.45C131.96,158.85,140.42,158.86,148.88,158.86z"></path>		<path class="st0" d="M148.88,173.7c-8.24,0-16.47,0-24.71,0c-0.61,0-1.24,0.03-1.83-0.09c-1.16-0.25-1.83-1.01-1.91-2.21   c-0.08-1.19,0.42-2.09,1.57-2.46c0.62-0.2,1.31-0.23,1.97-0.23c16.69-0.01,33.39-0.01,50.08,0c0.61,0,1.24,0.01,1.81,0.17   c1.22,0.34,1.83,1.23,1.76,2.5c-0.07,1.27-0.8,2.05-2.04,2.27c-0.6,0.1-1.22,0.07-1.83,0.07   C165.46,173.7,157.17,173.7,148.88,173.7z"></path>		<path class="st0" d="M148.88,178.61c8.35,0,16.7,0,25.04,0c0.5,0,1.01-0.04,1.5,0.03c1.32,0.19,2.11,0.96,2.2,2.31   c0.09,1.37-0.65,2.22-1.92,2.56c-0.58,0.15-1.21,0.11-1.82,0.11c-16.58,0-33.17,0-49.75,0c-0.5,0-1.01,0.03-1.5-0.04   c-1.42-0.21-2.32-1.3-2.19-2.67c0.13-1.43,0.98-2.23,2.4-2.28c1.89-0.06,3.78-0.02,5.68-0.02   C135.3,178.61,142.09,178.61,148.88,178.61z"></path>		<path class="st0" d="M149.04,131.21c8.35,0,16.7,0,25.04,0c0.5,0,1.02-0.05,1.5,0.06c1.28,0.3,2.06,1.1,2.05,2.47   c-0.01,1.36-0.8,2.16-2.08,2.43c-0.54,0.11-1.11,0.05-1.66,0.05c-16.58,0-33.17,0-49.75,0c-0.45,0-0.89,0.02-1.33-0.02   c-1.45-0.14-2.39-1.14-2.38-2.5c0.01-1.36,0.95-2.34,2.42-2.47c0.44-0.04,0.89-0.01,1.33-0.01   C132.46,131.21,140.75,131.21,149.04,131.21z"></path>		<path class="st0" d="M149.06,126.33c-8.29,0-16.58,0-24.87-0.01c-0.66,0-1.35,0.01-1.99-0.15c-1.16-0.29-1.76-1.12-1.77-2.32   c-0.01-1.2,0.56-2.03,1.71-2.37c0.52-0.15,1.1-0.16,1.65-0.16c16.8-0.01,33.61-0.01,50.41,0c0.55,0,1.13,0.01,1.65,0.15   c1.23,0.34,1.83,1.22,1.78,2.48c-0.05,1.19-0.71,1.99-1.87,2.24c-0.64,0.14-1.33,0.12-1.99,0.13   C165.53,126.34,157.29,126.33,149.06,126.33z"></path>		<path class="st0" d="M94.22,170.95c1.49-1.57,2.72-2.93,4.02-4.22c1.33-1.32,2.72-1.4,3.82-0.32c1.07,1.05,1,2.53-0.26,3.82   c-1.82,1.87-3.67,3.73-5.55,5.54c-1.33,1.29-2.63,1.28-3.95,0.02c-1.25-1.19-2.47-2.4-3.66-3.65c-1.16-1.22-1.19-2.68-0.15-3.7   c1.06-1.03,2.45-0.99,3.7,0.21C92.87,169.3,93.44,170.06,94.22,170.95z"></path>		<path class="st0" d="M94.43,133.31c1.32-1.41,2.57-2.82,3.91-4.15c1.22-1.22,2.63-1.27,3.69-0.26c1.1,1.05,1.05,2.52-0.22,3.82   c-1.83,1.87-3.67,3.73-5.55,5.55c-1.38,1.34-2.59,1.35-3.94,0.06c-1.29-1.23-2.56-2.48-3.78-3.78c-1.08-1.15-1.07-2.57-0.07-3.58   c1.01-1.01,2.38-1,3.59,0.05c0.38,0.33,0.71,0.71,1.07,1.06C93.49,132.42,93.85,132.76,94.43,133.31z"></path>	</g></g></svg>