<svg xmlns="http://www.w3.org/2000/svg" xmlns:xlink="http://www.w3.org/1999/xlink" id="Layer_1" x="0px" y="0px" viewBox="0 0 257 231" style="enable-background:new 0 0 257 231;" xml:space="preserve"><style type="text/css">	.st0{fill:#79CAEB;}</style><g>	<path class="st0" d="M156.37,156.14c-1.21-0.65-2.38-1.1-3.33-1.84c-1.46-1.13-2.72-2.52-4.17-3.67c-0.42-0.33-1.3-0.44-1.82-0.25  c-2.29,0.84-4.55,1.78-6.77,2.81c-0.51,0.24-1.05,0.95-1.11,1.49c-0.21,1.77-0.19,3.57-0.3,5.36c-0.18,3.19-1.99,4.94-5.15,4.96  c-3.47,0.03-6.94,0.02-10.41,0c-3.18-0.02-4.98-1.74-5.18-4.93c-0.11-1.79-0.06-3.59-0.29-5.36c-0.08-0.58-0.7-1.3-1.26-1.56  c-2.1-0.99-4.31-1.75-6.41-2.74c-0.89-0.42-1.46-0.46-2.19,0.27c-1.26,1.27-2.61,2.46-3.97,3.63c-2.36,2.04-4.84,2.01-7.03-0.13  c-2.53-2.46-5.03-4.95-7.49-7.47c-2.16-2.22-2.17-4.66-0.1-7.01c1.38-1.57,3.61-2.95,3.96-4.71c0.33-1.7-1.55-3.72-1.95-5.7  c-0.59-2.91-2.18-3.86-4.95-3.58c-1.06,0.1-2.15-0.07-3.22-0.15c-2.64-0.19-4.51-1.95-4.58-4.59c-0.1-3.76-0.09-7.53-0.01-11.29  c0.05-2.61,1.7-4.37,4.3-4.65c1.9-0.2,3.82-0.26,5.73-0.29c1.02-0.02,1.58-0.29,1.95-1.36c0.79-2.24,1.85-4.39,2.67-6.62  c0.19-0.52,0.09-1.41-0.24-1.83c-1.19-1.49-2.57-2.83-3.81-4.28c-1.9-2.22-1.87-4.63,0.17-6.74c2.49-2.58,5.03-5.12,7.61-7.61  c2.22-2.14,4.67-2.13,7.03-0.05c1.34,1.19,2.6,2.48,4.02,3.57c0.47,0.36,1.4,0.47,1.97,0.27c2.24-0.8,4.46-1.71,6.61-2.72  c0.55-0.26,1.12-1.02,1.2-1.61c0.22-1.71,0.18-3.45,0.28-5.18c0.18-3.29,1.94-5.04,5.24-5.1c3.41-0.06,6.82-0.06,10.23,0  c3.38,0.05,5.13,1.84,5.28,5.24c0.08,1.73,0.08,3.47,0.29,5.18c0.07,0.54,0.63,1.22,1.14,1.46c2.16,1,4.43,1.77,6.59,2.79  c0.94,0.44,1.5,0.31,2.19-0.37c1.28-1.25,2.62-2.45,3.97-3.63c2.27-1.98,4.72-1.96,6.89,0.13c2.58,2.49,5.12,5.02,7.61,7.6  c2.04,2.11,2.09,4.52,0.21,6.75c-1.19,1.42-2.45,2.78-3.75,4.1c-0.68,0.7-0.79,1.27-0.35,2.19c0.99,2.1,1.91,4.24,2.68,6.43  c0.37,1.05,0.89,1.38,1.93,1.39c1.85,0.02,3.71,0.07,5.55,0.26c2.82,0.28,4.47,2.04,4.52,4.83c0.06,3.64,0.06,7.29,0,10.93  c-0.05,2.83-1.9,4.64-4.74,4.81c-2.15,0.13-4.78-0.46-6.31,0.58c-1.48,1-1.59,3.82-2.72,5.57c-1.54,2.36-1.15,4.05,0.92,5.73  c0.92,0.75,1.67,1.71,2.42,2.64c1.65,2.03,1.64,4.46-0.16,6.34c-2.65,2.76-5.34,5.48-8.14,8.08  C158.81,155.24,157.58,155.54,156.37,156.14z M134.45,160.71c0.14-2.35,0.3-4.59,0.4-6.83c0.11-2.46,1.38-3.91,3.69-4.71  c2.19-0.76,4.35-1.64,6.45-2.64c2.95-1.4,4.39-1.28,6.82,0.89c1.54,1.37,3.08,2.76,4.43,3.97c2.91-2.92,5.63-5.66,8.47-8.51  c-1.38-1.52-2.92-3.18-4.43-4.86c-1.52-1.7-1.7-3.58-0.78-5.65c1.06-2.39,2.1-4.8,3.04-7.25c0.92-2.39,2.24-3.42,4.8-3.55  c2.19-0.11,4.38-0.25,6.65-0.38c0-4.04,0-7.89,0-12.22c-2.16,0-4.24,0.07-6.32-0.02c-3.02-0.12-4.26-1.17-5.27-3.95  c-0.8-2.18-1.68-4.33-2.67-6.43c-1.24-2.64-1.1-4.24,0.8-6.38c1.43-1.6,2.87-3.18,4.17-4.62c-2.85-2.89-5.6-5.68-8.43-8.56  c-1.62,1.47-3.28,3.01-4.98,4.51c-1.64,1.45-3.45,1.72-5.48,0.82c-2.56-1.13-5.16-2.18-7.76-3.22c-1.91-0.76-3.02-2.08-3.16-4.15  c-0.12-1.91-0.27-3.82-0.28-5.72c-0.01-1.13-0.35-1.6-1.55-1.57c-3.05,0.06-6.1,0.07-9.15,0c-1.23-0.03-1.52,0.52-1.52,1.61  c0,1.67-0.1,3.34-0.23,5.01c-0.23,3.06-1.15,4.1-4.09,5.15c-2.08,0.74-4.12,1.58-6.11,2.53c-2.92,1.39-4.4,1.24-6.82-0.95  c-1.53-1.39-3.06-2.77-4.33-3.93c-2.96,2.93-5.7,5.65-8.54,8.46c1.3,1.43,2.71,2.96,4.1,4.52c2,2.24,2.16,3.85,0.88,6.53  c-0.92,1.93-1.79,3.9-2.5,5.92c-1.19,3.41-2.31,4.35-6.01,4.46c-1.89,0.06-3.79,0.01-5.73,0.01c0,4.33,0,8.18,0,11.98  c0.21,0.11,0.31,0.2,0.41,0.21c2.03,0.13,4.06,0.27,6.09,0.37c2.77,0.14,4.04,1.14,5.02,3.77c0.86,2.29,1.8,4.54,2.81,6.76  c1.15,2.5,0.97,4.15-0.89,6.22c-1.43,1.59-2.88,3.16-4.08,4.48c2.87,2.92,5.61,5.71,8.42,8.58c1.58-1.42,3.25-2.95,4.95-4.45  c1.65-1.46,3.45-1.67,5.49-0.77c2.5,1.11,5.06,2.12,7.6,3.14c1.95,0.78,3.15,2.12,3.26,4.28c0.11,1.97,0.24,3.93,0.29,5.9  c0.02,0.91,0.35,1.26,1.28,1.25C127.14,160.69,130.61,160.71,134.45,160.71z"></path>	<path class="st0" d="M50.57,51.82c-2.57,0-5.14,0.02-7.71-0.01c-1.99-0.03-2.67-0.72-2.68-2.73c-0.02-3.76-0.02-7.52,0-11.28  c0.01-2,0.69-2.76,2.66-2.78c5.2-0.04,10.4-0.04,15.6,0c1.88,0.02,2.56,0.77,2.57,2.66c0.02,3.82,0.02,7.64,0,11.46  c-0.01,1.98-0.69,2.64-2.73,2.66C55.71,51.84,53.14,51.82,50.57,51.82z M56.61,39.47c-4.13,0-8.09,0-12,0c0,2.76,0,5.35,0,7.96  c4.05,0,7.97,0,12,0C56.61,44.75,56.61,42.15,56.61,39.47z"></path>	<path class="st0" d="M206.3,51.82c-2.57,0-5.14,0.03-7.71-0.01c-1.91-0.03-2.59-0.72-2.61-2.6c-0.02-3.88-0.03-7.76,0-11.64  c0.01-1.76,0.72-2.52,2.52-2.54c5.26-0.05,10.52-0.03,15.78-0.01c1.65,0.01,2.55,0.84,2.54,2.55c-0.01,3.88,0.02,7.76-0.01,11.64  c-0.01,1.87-0.73,2.57-2.62,2.6C211.56,51.85,208.93,51.82,206.3,51.82z M212.46,39.46c-4.14,0-8.1,0-12.05,0c0,2.74,0,5.34,0,7.92  c4.08,0,8.04,0,12.05,0C212.46,44.69,212.46,42.13,212.46,39.46z"></path>	<path class="st0" d="M206.28,195.99c-2.51,0-5.02,0.03-7.53-0.01c-2.1-0.03-2.76-0.73-2.77-2.84c-0.02-3.76-0.02-7.52,0-11.28  c0.01-1.99,0.68-2.66,2.72-2.67c5.14-0.02,10.28-0.02,15.42,0c2,0.01,2.68,0.72,2.7,2.71c0.02,3.76,0.02,7.52,0,11.28  c-0.01,2.07-0.71,2.77-2.82,2.8C211.42,196.02,208.85,195.99,206.28,195.99z M212.45,183.63c-4.13,0-8.1,0-12.04,0  c0,2.73,0,5.32,0,7.92c4.09,0,8.05,0,12.04,0C212.45,188.85,212.45,186.3,212.45,183.63z"></path>	<path class="st0" d="M50.71,179.18c2.57,0,5.14-0.03,7.71,0.01c1.9,0.03,2.58,0.72,2.59,2.62c0.02,3.82,0.02,7.64,0,11.46  c-0.01,1.91-0.68,2.68-2.54,2.7c-5.26,0.05-10.52,0.03-15.78,0.01c-1.65-0.01-2.53-0.85-2.53-2.56c0.01-3.88-0.02-7.76,0.01-11.64  c0.01-1.86,0.73-2.55,2.64-2.58C45.45,179.16,48.08,179.18,50.71,179.18z M44.54,191.55c4.13,0,8.1,0,12.05,0c0-2.74,0-5.33,0-7.93  c-4.08,0-8.04,0-12.05,0C44.54,186.31,44.54,188.86,44.54,191.55z"></path>	<path class="st0" d="M50.54,79.78c-2.51,0-5.02,0.02-7.53,0c-2.14-0.02-2.81-0.68-2.83-2.76c-0.02-3.76-0.02-7.52,0-11.28  c0.01-1.98,0.71-2.73,2.69-2.75c5.14-0.04,10.28-0.04,15.42,0c2.02,0.01,2.71,0.73,2.72,2.7c0.02,3.82,0.02,7.64,0,11.46  c-0.01,1.9-0.69,2.6-2.59,2.62C55.8,79.8,53.17,79.78,50.54,79.78z M56.66,67.41c-4.15,0-8.11,0-12.06,0c0,2.74,0,5.34,0,7.92  c4.08,0,8.04,0,12.06,0C56.66,72.64,56.66,70.09,56.66,67.41z"></path>	<path class="st0" d="M206.35,79.78c-2.51,0-5.02,0.02-7.53-0.01c-2.17-0.02-2.83-0.64-2.84-2.74c-0.02-3.76-0.02-7.52,0-11.28  c0.01-2.02,0.67-2.76,2.65-2.77c5.2-0.04,10.4-0.04,15.6,0c1.86,0.02,2.57,0.8,2.58,2.67c0.02,3.82,0.02,7.64,0,11.46  c-0.01,1.95-0.72,2.63-2.75,2.65C211.49,79.8,208.92,79.78,206.35,79.78z M200.38,67.38c0,2.71,0,5.3,0,7.98c4.06,0,8.02,0,12.05,0  c0-2.71,0-5.3,0-7.98C208.37,67.38,204.4,67.38,200.38,67.38z"></path>	<path class="st0" d="M206.39,151.23c2.63,0,5.26-0.03,7.89,0.01c1.78,0.03,2.51,0.75,2.53,2.51c0.03,3.88,0,7.76,0.02,11.64  c0.01,1.69-0.79,2.62-2.46,2.63c-5.32,0.03-10.64,0.03-15.96,0c-1.56-0.01-2.44-0.82-2.43-2.45c0.01-3.94-0.02-7.88,0.01-11.82  c0.01-1.78,0.71-2.48,2.52-2.5C201.13,151.2,203.76,151.23,206.39,151.23z M212.46,155.66c-4.13,0-8.09,0-12.06,0  c0,2.73,0,5.31,0,7.94c4.08,0,8.05,0,12.06,0C212.46,160.92,212.46,158.36,212.46,155.66z"></path>	<path class="st0" d="M50.64,151.23c2.57,0,5.14-0.02,7.71,0.01c2.01,0.02,2.66,0.69,2.67,2.72c0.02,3.76,0.02,7.52,0,11.28  c-0.01,2.08-0.68,2.77-2.82,2.79c-5.08,0.03-10.16,0.03-15.24,0c-2.09-0.01-2.76-0.75-2.77-2.85c-0.02-3.7-0.02-7.4,0-11.1  c0.01-2.19,0.66-2.82,2.93-2.84C45.62,151.21,48.13,151.23,50.64,151.23z M44.54,163.59c4.14,0,8.11,0,12.05,0  c0-2.74,0-5.34,0-7.92c-4.08,0-8.04,0-12.05,0C44.54,158.36,44.54,160.91,44.54,163.59z"></path>	<path class="st0" d="M163.34,176.37c-3.11,0-6.22-0.04-9.32,0.02c-1.48,0.03-2.48-0.48-3.11-1.88c-1.48-3.26-3.05-6.47-4.56-9.71  c-0.74-1.58-0.43-2.83,0.75-3.38c1.21-0.56,2.36-0.01,3.12,1.54c1.25,2.57,2.52,5.14,3.66,7.76c0.45,1.04,1.04,1.38,2.16,1.37  c5.62-0.05,11.24-0.04,16.86,0c0.74,0.01,1.7,0.09,2.15,0.54c0.49,0.49,0.92,1.7,0.64,2.14c-0.46,0.72-1.48,1.48-2.3,1.52  C170.04,176.46,166.69,176.37,163.34,176.37z"></path>	<path class="st0" d="M93.48,176.37c-3.17,0-6.34,0.01-9.5-0.01c-1.85-0.01-2.96-0.86-2.84-2.23c0.15-1.67,1.29-2.08,2.79-2.08  c5.68,0.02,11.36-0.02,17.04,0.03c1.11,0.01,1.7-0.32,2.16-1.36c1.14-2.62,2.41-5.19,3.66-7.76c0.75-1.56,1.9-2.1,3.11-1.55  c1.19,0.54,1.5,1.79,0.76,3.38c-1.51,3.24-3.09,6.45-4.56,9.71c-0.63,1.4-1.63,1.9-3.11,1.88  C99.82,176.33,96.65,176.37,93.48,176.37z"></path>	<path class="st0" d="M164.48,58.48c-2.87,0-5.74,0.05-8.6-0.03c-1.06-0.03-1.58,0.35-2,1.3c-1.13,2.56-2.36,5.08-3.58,7.6  c-0.84,1.75-1.92,2.31-3.19,1.72c-1.25-0.58-1.52-1.81-0.72-3.53c1.49-3.19,3.02-6.35,4.49-9.54c0.59-1.29,1.46-1.87,2.93-1.85  c6.39,0.05,12.79,0.02,19.18,0.03c1.9,0,2.9,0.78,2.86,2.17c-0.04,1.37-1.04,2.12-2.96,2.13C170.1,58.5,167.29,58.48,164.48,58.48z  "></path>	<path class="st0" d="M93.58,54.19c3.23,0,6.46,0.04,9.68-0.02c1.39-0.03,2.23,0.55,2.79,1.77c1.53,3.3,3.1,6.58,4.66,9.86  c0.62,1.3,0.6,2.45-0.77,3.23c-1.19,0.68-2.35,0.15-3.13-1.44c-1.26-2.57-2.52-5.14-3.66-7.76c-0.45-1.03-1-1.39-2.13-1.37  c-5.56,0.06-11.12,0.04-16.67,0.01c-0.75,0-1.73-0.02-2.19-0.45c-0.55-0.51-1.07-1.66-0.85-2.24c0.26-0.69,1.31-1.48,2.06-1.52  C86.77,54.1,90.18,54.19,93.58,54.19z"></path>	<path class="st0" d="M179.48,41.37c-2.93,0-5.86-0.02-8.79,0.01c-1.49,0.02-2.54-0.57-2.56-2.09c-0.03-1.52,1.05-2.2,2.5-2.21  c5.92-0.02,11.83-0.02,17.75,0c1.42,0,2.47,0.58,2.57,2.14c0.09,1.34-0.92,2.13-2.68,2.14C185.34,41.39,182.41,41.37,179.48,41.37z  "></path>	<path class="st0" d="M77.48,41.37c-2.93,0-5.86-0.02-8.79,0.01c-1.45,0.02-2.49-0.47-2.64-2.02c-0.13-1.32,0.92-2.26,2.61-2.27  c5.86-0.03,11.71-0.03,17.57,0c1.68,0.01,2.8,0.96,2.66,2.25c-0.16,1.52-1.16,2.07-2.63,2.05C83.33,41.34,80.41,41.37,77.48,41.37z  "></path>	<path class="st0" d="M179.5,189.63c2.93,0,5.86,0.02,8.78-0.01c1.44-0.02,2.49,0.44,2.67,2c0.15,1.32-0.91,2.29-2.59,2.3  c-5.86,0.03-11.71,0.03-17.57,0c-1.69-0.01-2.81-0.94-2.68-2.23c0.16-1.64,1.27-2.1,2.79-2.08  C173.76,189.67,176.63,189.63,179.5,189.63z"></path>	<path class="st0" d="M77.41,189.63c2.93,0,5.86-0.01,8.79,0c1.74,0.01,2.81,0.83,2.69,2.14c-0.13,1.52-1.15,2.14-2.59,2.14  c-5.92,0.01-11.83,0.02-17.75-0.01c-1.42-0.01-2.52-0.65-2.48-2.21c0.03-1.55,1.1-2.1,2.56-2.08  C71.55,189.65,74.48,189.63,77.41,189.63z"></path>	<path class="st0" d="M77.41,157.56c-2.87,0-5.74-0.01-8.6,0.01c-1.49,0.01-2.64-0.42-2.76-2.1c-0.09-1.33,0.94-2.18,2.69-2.19  c5.8-0.03,11.59-0.01,17.39-0.01c1.49,0,2.62,0.5,2.77,2.14c0.11,1.3-0.95,2.14-2.7,2.16C83.26,157.58,80.34,157.55,77.41,157.56z"></path>	<path class="st0" d="M179.41,157.56c-2.87,0-5.74,0.02-8.6-0.01c-1.75-0.02-2.81-0.85-2.7-2.15c0.14-1.64,1.27-2.15,2.76-2.14  c5.8,0.01,11.59-0.01,17.39,0.01c1.75,0.01,2.79,0.86,2.69,2.18c-0.12,1.68-1.26,2.12-2.75,2.11  C185.27,157.54,182.34,157.56,179.41,157.56z"></path>	<path class="st0" d="M179.54,77.75c-2.87,0-5.74,0.02-8.6-0.01c-1.84-0.02-2.97-0.9-2.83-2.24c0.17-1.65,1.32-2.07,2.81-2.06  c5.74,0.02,11.47,0,17.21,0.02c1.89,0.01,2.94,0.82,2.82,2.2c-0.15,1.68-1.33,2.09-2.8,2.09  C185.28,77.74,182.41,77.75,179.54,77.75z"></path>	<path class="st0" d="M77.53,73.45c2.87,0,5.74,0.02,8.6-0.01c1.51-0.02,2.62,0.47,2.76,2.11c0.11,1.29-0.99,2.18-2.71,2.18  c-5.8,0.03-11.59,0.01-17.39,0.01c-1.47,0-2.63-0.46-2.74-2.14c-0.09-1.33,0.93-2.13,2.69-2.15C71.67,73.43,74.6,73.45,77.53,73.45  z"></path>	<path class="st0" d="M183.35,165.97c-1.67,0-3.34,0.03-5.01-0.01c-1.42-0.04-2.5-0.63-2.46-2.22c0.04-1.58,1.1-2.08,2.55-2.07  c3.34,0.02,6.68,0.02,10.03,0c1.39-0.01,2.39,0.55,2.47,1.99c0.08,1.55-0.95,2.25-2.39,2.29  C186.81,166.01,185.08,165.97,183.35,165.97z"></path>	<path class="st0" d="M183.26,69.33c-1.67,0-3.34,0-5.01,0c-1.4,0-2.33-0.61-2.36-2.08c-0.03-1.48,0.95-2.17,2.29-2.19  c3.46-0.06,6.92-0.05,10.38-0.01c1.35,0.02,2.37,0.67,2.37,2.13c0,1.55-1,2.17-2.48,2.15C186.72,69.32,184.99,69.33,183.26,69.33z"></path>	<path class="st0" d="M73.54,69.33c-1.73,0-3.46,0-5.19,0c-1.34,0-2.21-0.66-2.28-1.99c-0.08-1.45,0.86-2.24,2.22-2.27  C71.8,65,75.32,65,78.84,65.06c1.35,0.02,2.32,0.72,2.27,2.21c-0.04,1.47-0.99,2.06-2.39,2.06C77,69.32,75.27,69.33,73.54,69.33z"></path>	<path class="st0" d="M73.59,161.68c1.73,0,3.46,0,5.19,0c1.32,0,2.22,0.57,2.33,1.93c0.12,1.47-0.78,2.29-2.14,2.32  c-3.58,0.08-7.16,0.07-10.74,0c-1.27-0.02-2.19-0.78-2.17-2.14c0.02-1.44,0.92-2.11,2.34-2.11  C70.13,161.68,71.86,161.68,73.59,161.68z"></path>	<path class="st0" d="M183.61,45.5c1.67,0,3.34-0.02,5.01,0c1.4,0.02,2.32,0.7,2.31,2.15c0,1.36-0.92,2.08-2.2,2.1  c-3.58,0.06-7.16,0.06-10.74-0.01c-1.29-0.02-2.15-0.77-2.13-2.15c0.03-1.37,0.87-2.05,2.19-2.07  C179.91,45.47,181.76,45.5,183.61,45.5z"></path>	<path class="st0" d="M73.74,49.79c-1.73,0-3.46,0.02-5.19-0.01c-1.42-0.03-2.51-0.63-2.49-2.19c0.02-1.56,1.11-2.1,2.55-2.1  c3.34,0.01,6.68,0,10.02,0c1.45,0,2.49,0.57,2.48,2.16c-0.02,1.6-1.14,2.11-2.54,2.13C76.96,49.81,75.35,49.79,73.74,49.79z"></path>	<path class="st0" d="M183.41,185.5c-1.73,0-3.46,0.02-5.19,0c-1.38-0.02-2.33-0.63-2.34-2.11c-0.01-1.49,0.97-2.13,2.32-2.15  c3.46-0.04,6.92-0.04,10.38,0c1.36,0.02,2.35,0.68,2.35,2.14c0,1.45-0.94,2.11-2.34,2.13C186.87,185.52,185.14,185.5,183.41,185.5z  "></path>	<path class="st0" d="M73.61,185.51c-1.73,0-3.46,0.01-5.19-0.01c-1.39-0.01-2.35-0.66-2.36-2.1c-0.01-1.46,0.97-2.14,2.33-2.16  c3.46-0.04,6.92-0.04,10.38,0c1.35,0.02,2.35,0.64,2.35,2.13c0,1.59-1.05,2.14-2.49,2.14C76.95,185.51,75.28,185.51,73.61,185.51z"></path>	<path class="st0" d="M148.36,115.27c-0.02,10.93-8.91,19.84-19.84,19.87c-10.98,0.02-19.97-9.02-19.88-20  c0.08-10.98,8.94-19.75,19.93-19.73C139.52,95.44,148.38,104.32,148.36,115.27z M112.95,114.99c-0.16,8.6,6.73,15.7,15.38,15.85  c8.48,0.14,15.56-6.75,15.72-15.32c0.17-8.48-6.62-15.62-15.02-15.79C120.18,99.53,113.11,106.25,112.95,114.99z"></path></g></svg>