<svg xmlns="http://www.w3.org/2000/svg" xmlns:xlink="http://www.w3.org/1999/xlink" id="Layer_1" x="0px" y="0px" viewBox="0 0 257 231" style="enable-background:new 0 0 257 231;" xml:space="preserve"><style type="text/css">	.st0{fill:#79CAEB;}</style><g>	<path class="st0" d="M40.24,41.46C41.74,38,44.42,36.99,48.1,37c42.36,0.08,84.71,0.05,127.07,0.05c0.62,0,1.25-0.05,1.86,0.03  c1.42,0.2,2.26,1.06,2.26,2.5c0,1.44-0.84,2.3-2.26,2.51c-0.61,0.09-1.24,0.03-1.86,0.03c-42.41,0-84.83,0-127.24,0  c-2.61,0-2.61,0-2.61,2.57c0,2.54,0.05,5.08-0.02,7.62c-0.03,1.27,0.48,1.77,1.7,1.66c0.34-0.03,0.68,0,1.02,0  c52.63,0,105.27,0,157.9,0c2.74,0,2.74,0,2.74-2.81c0-2.37-0.07-4.75,0.03-7.11c0.06-1.47-0.43-1.97-1.93-1.96  c-5.87,0.07-11.75,0.04-17.62,0.02c-1.75,0-2.75-0.78-2.94-2.18c-0.22-1.64,0.88-2.88,2.72-2.89c6.33-0.03,12.65-0.05,18.98,0.01  c3.28,0.03,5.75,2.55,5.83,5.84c0.06,2.88,0.02,5.76,0.02,8.64c0,5.01-1.53,6.85-6.61,7.69c0,0.73,0,1.5,0,2.27  c0,34.11,0,68.22,0,102.33c0,0.79,0.02,1.58-0.05,2.37c-0.22,2.39-1.82,3.93-4.22,4c-2.09,0.06-4.18,0.02-6.27,0.02  c-21.63,0-43.26,0-64.89,0c-0.66,0-1.33,0-2.16,0c0,3.49-0.05,6.81,0.06,10.13c0.01,0.46,0.71,1.04,1.22,1.33  c3.35,1.9,4.98,5.57,4.02,9.21c-0.96,3.66-4.23,6.15-7.98,6.1c-3.72-0.05-6.9-2.64-7.78-6.35c-0.85-3.55,0.78-7.14,4.2-8.94  c0.89-0.47,1.2-0.98,1.18-1.94c-0.05-3.1-0.02-6.2-0.02-9.53c-0.72,0-1.32,0-1.93,0c-10.05,0-20.11,0-30.16,0  c-0.56,0-1.15,0.06-1.69-0.06c-1.32-0.27-2.09-1.12-2.09-2.49c0-1.37,0.78-2.22,2.1-2.48c0.6-0.12,1.24-0.06,1.86-0.06  c35.75,0,71.5,0,107.25,0c0.67,0,1.34,0,2.13,0c0-35.38,0-70.64,0-105.99c-49.94,0-99.84,0-149.86,0c0,35.3,0,70.55,0,105.99  c0.66,0,1.27,0,1.87,0c8.19,0,16.38,0.01,24.57-0.01c1.42,0,2.61,0.31,3.09,1.8c0.59,1.82-0.7,3.29-2.91,3.29  c-6.72,0.02-13.44,0.01-20.16,0.01c-2.37,0-4.74,0.03-7.12-0.01c-2.76-0.04-4.39-1.63-4.54-4.4c-0.04-0.68-0.02-1.36-0.02-2.03  c0-34.05,0-68.11,0-102.16c0-0.78,0-1.56,0-2.53c-3.32,0.07-5.32-1.68-6.61-4.43C40.24,50.27,40.24,45.86,40.24,41.46z   M130.03,188.95c0.05-1.63-1.28-3.05-2.91-3.12c-1.63-0.07-3.07,1.24-3.16,2.87c-0.1,1.69,1.3,3.18,2.99,3.2  C128.58,191.93,129.98,190.59,130.03,188.95z"></path>	<path class="st0" d="M172.82,92.97c0,3.99,0,7.81,0,11.78c0.55,0.03,1.09,0.07,1.63,0.07c4.46,0.01,8.92-0.01,13.38,0.01  c2.98,0.01,4.66,1.59,4.71,4.56c0.07,3.61,0.07,7.23,0,10.84c-0.06,2.98-1.72,4.56-4.7,4.58c-4.86,0.03-9.71,0.02-14.57,0.03  c-0.11,0-0.21,0.05-0.43,0.11c0,3.83,0,7.69,0,11.73c0.63,0,1.23,0,1.84,0c4.46,0,8.92-0.02,13.38,0.01  c2.55,0.02,4.33,1.51,4.41,3.95c0.13,4,0.13,8.02,0.01,12.02c-0.07,2.39-1.8,3.98-4.2,3.99c-12.08,0.04-24.16,0.04-36.25,0  c-2.37-0.01-4.08-1.65-4.14-4.05c-0.11-3.95-0.12-7.9,0-11.85c0.08-2.53,1.85-4.04,4.5-4.05c5.02-0.03,10.03-0.01,15.15-0.01  c0-3.97,0-7.83,0-11.86c-2.74,0-5.43,0-8.12,0c-2.43,0-4.86,0.04-7.28-0.02c-2.35-0.05-4.13-1.53-4.2-3.8  c-0.14-4.11-0.14-8.24,0-12.36c0.08-2.33,1.89-3.79,4.36-3.81c4.46-0.04,8.92-0.01,13.38-0.01c0.61,0,1.22,0,1.9,0  c0-3.98,0-7.8,0-11.86c-0.59,0-1.19,0-1.78,0c-4.4,0-8.81,0.02-13.21-0.01c-2.99-0.01-4.67-1.59-4.73-4.55  c-0.07-3.61-0.07-7.23,0-10.84c0.05-2.98,1.72-4.59,4.68-4.59c11.8-0.02,23.6-0.02,35.4,0c2.87,0,4.55,1.61,4.61,4.49  c0.07,3.67,0.08,7.34,0,11.01c-0.06,2.87-1.75,4.45-4.62,4.48c-2.48,0.03-4.97,0.01-7.45,0.01  C177.98,92.97,175.5,92.97,172.82,92.97z M187.43,78.19c-11.58,0-22.99,0-34.4,0c0,3.27,0,6.4,0,9.56c11.52,0,22.93,0,34.4,0  C187.43,84.52,187.43,81.42,187.43,78.19z M187.34,119.68c0-3.32,0-6.49,0-9.67c-11.52,0-22.89,0-34.28,0c0,3.27,0,6.45,0,9.67  C164.53,119.68,175.86,119.68,187.34,119.68z M152.97,151.46c11.58,0,22.99,0,34.4,0c0-3.27,0-6.4,0-9.56c-11.52,0-22.93,0-34.4,0  C152.97,145.13,152.97,148.23,152.97,151.46z"></path>	<path class="st0" d="M105.1,73.28c2.61-1.89,4.91-4.04,7.62-5.43c10.14-5.21,22.91-0.39,27.12,10.1c0.34,0.86,0.24,2.15-0.19,2.96  c-0.3,0.57-1.66,1.07-2.28,0.85c-0.87-0.31-1.76-1.18-2.18-2.04c-2.85-5.87-8.06-9.09-14.56-8.83  c-7.31,0.29-13.47,6.26-14.03,13.58c-0.58,7.65,4.46,14.48,11.76,15.94c7.35,1.47,14.27-2.28,17.07-9.28  c0.49-1.22,1.04-2.28,2.53-2.36c1.93-0.11,3.15,1.62,2.41,3.62c-2.68,7.18-7.79,11.71-15.34,13.03c-2.88,0.5-5.91,0.08-9.17,0.08  c-3.51,9.14-10.12,15.53-20.17,17.91c-7.37,1.75-14.38,0.51-20.8-3.5c-12.93-8.07-16.96-24.86-9.16-37.84  C73.55,69.03,91.16,63.93,105.1,73.28z M87,73.88c-0.82,0.09-1.39,0.11-1.94,0.22c-10.56,2.13-18.24,11.52-18.21,22.26  c0.02,10.87,7.79,20.3,18.37,22.3c10.68,2.02,21.3-3.8,25.39-13.84c0.49-1.19,0.62-2.04-0.75-2.74c-0.88-0.45-1.69-1.17-2.33-1.94  c-0.86-1.04-1.86-1.25-3.12-1.24c-4.74,0.05-9.49,0.05-14.23,0.01c-2.31-0.02-3.17-0.92-3.18-3.19c-0.02-3.05,0-6.1,0-9.15  C87,82.4,87,78.23,87,73.88z M92.17,73.87c0,6.73,0,13.26,0,19.86c3.6,0,7.12,0,10.82,0c-2.06-5.28-2.09-10.45-0.05-15.67  C99.7,75.74,96.23,74.28,92.17,73.87z"></path>	<path class="st0" d="M107.31,156.68c-10.04,0-20.09,0-30.13,0c-0.51,0-1.03,0.05-1.52-0.04c-1.39-0.27-2.22-1.12-2.19-2.57  c0.03-1.36,0.85-2.17,2.17-2.42c0.49-0.09,1.01-0.04,1.52-0.04c20.2,0,40.4,0,60.59,0c0.51,0,1.03-0.04,1.52,0.04  c1.34,0.23,2.16,1.07,2.2,2.4c0.04,1.41-0.77,2.32-2.18,2.59c-0.49,0.09-1.01,0.05-1.52,0.05  C127.62,156.68,117.47,156.68,107.31,156.68z"></path>	<path class="st0" d="M95.32,140.6c5.98,0,11.96,0,17.94,0c0.56,0,1.14-0.02,1.69,0.09c1.29,0.24,1.96,1.09,1.99,2.37  c0.03,1.28-0.6,2.17-1.87,2.47c-0.6,0.14-1.23,0.15-1.85,0.15c-12.02,0.01-24.04,0.01-36.05,0c-0.62,0-1.26-0.01-1.85-0.17  c-1.25-0.33-1.9-1.22-1.84-2.5c0.06-1.27,0.77-2.1,2.05-2.33c0.55-0.1,1.12-0.08,1.69-0.08C83.24,140.6,89.28,140.6,95.32,140.6z"></path>	<path class="st0" d="M124.75,134.65c-4.57,0-9.15,0.01-13.72,0c-1.99-0.01-3.13-0.94-3.14-2.52c-0.01-1.59,1.12-2.55,3.1-2.56  c9.15-0.01,18.29-0.01,27.44,0c1.93,0,3.13,1.04,3.09,2.6c-0.04,1.5-1.2,2.47-3.04,2.47C133.89,134.66,129.32,134.65,124.75,134.65  z"></path>	<path class="st0" d="M88.69,129.57c4.06,0,8.13-0.01,12.19,0c2.03,0.01,3.15,0.88,3.19,2.46c0.05,1.65-1.11,2.62-3.2,2.62  c-8.07,0.01-16.14,0.01-24.21,0c-2.01,0-3.15-0.9-3.2-2.46c-0.05-1.62,1.14-2.61,3.22-2.62C80.68,129.56,84.69,129.57,88.69,129.57  z"></path>	<path class="st0" d="M128.89,121.1c-3.16,0-6.32,0.01-9.48,0c-1.97-0.01-3.09-0.99-3.05-2.6c0.04-1.53,1.13-2.46,3.01-2.47  c6.38-0.01,12.76-0.02,19.14,0c1.83,0,2.99,1.02,3,2.51c0.01,1.51-1.15,2.54-2.96,2.55C135.33,121.11,132.11,121.1,128.89,121.1z"></path>	<path class="st0" d="M129.45,78.78c-0.48,0.91-0.74,1.6-1.17,2.17c-3.17,4.24-6.36,8.47-9.56,12.69c-1.29,1.7-2.72,2.05-4.02,1.04  c-1.23-0.96-1.28-2.44-0.09-4.03c3.18-4.24,6.37-8.46,9.57-12.68c0.3-0.4,0.62-0.97,1.03-1.08c0.81-0.22,1.83-0.47,2.5-0.16  C128.45,77.08,128.87,78.05,129.45,78.78z"></path>	<path class="st0" d="M131.41,145.68c-2.31,0-4.63,0.04-6.94-0.01c-1.99-0.04-3.08-1.03-3.03-2.63c0.05-1.53,1.1-2.42,3.03-2.43  c4.68-0.02,9.36-0.02,14.04,0c1.84,0.01,2.98,1.02,2.98,2.51c0,1.48-1.14,2.5-2.98,2.54C136.15,145.72,133.78,145.68,131.41,145.68  z"></path>	<path class="st0" d="M66.29,134.64c-0.68,0-1.36,0.05-2.03-0.01c-1.48-0.12-2.45-1.12-2.46-2.49c-0.02-1.37,0.94-2.46,2.4-2.54  c1.4-0.08,2.82-0.07,4.22,0c1.47,0.07,2.46,1.13,2.48,2.48c0.01,1.35-0.97,2.42-2.42,2.55C67.76,134.69,67.02,134.64,66.29,134.64z  "></path>	<path class="st0" d="M66.34,156.65c-0.79,0-1.59,0.1-2.36-0.02c-1.4-0.23-2.2-1.13-2.16-2.58c0.04-1.37,0.85-2.26,2.17-2.39  c1.51-0.14,3.04-0.12,4.56-0.02c1.43,0.09,2.24,1,2.34,2.43c0.09,1.36-0.91,2.45-2.36,2.59c-0.73,0.07-1.46,0.01-2.2,0.01  C66.34,156.66,66.34,156.65,66.34,156.65z"></path>	<path class="st0" d="M66.49,140.65c0.73,0,1.47-0.07,2.19,0.01c1.37,0.16,2.14,1.02,2.19,2.36c0.05,1.33-0.62,2.38-1.99,2.51  c-1.67,0.16-3.37,0.16-5.04,0.01c-1.36-0.12-2.05-1.13-2.02-2.48c0.03-1.36,0.78-2.23,2.15-2.39  C64.8,140.57,65.65,140.65,66.49,140.65C66.49,140.65,66.49,140.65,66.49,140.65z"></path>	<path class="st0" d="M116.64,76.37c1.34-0.04,2.5,1.03,2.57,2.38c0.08,1.43-1.02,2.64-2.44,2.68c-1.39,0.04-2.62-1.16-2.61-2.54  C114.17,77.57,115.31,76.41,116.64,76.37z"></path>	<path class="st0" d="M128.7,92.77c-0.04,1.35-1.16,2.46-2.5,2.46c-1.38,0.01-2.59-1.24-2.55-2.61c0.04-1.4,1.26-2.49,2.7-2.41  C127.73,90.28,128.74,91.39,128.7,92.77z"></path></g></svg>