<?xml version="1.0" encoding="utf-8"?>
<!-- Generator: Adobe Illustrator 24.1.2, SVG Export Plug-In . SVG Version: 6.00 Build 0)  -->
<svg version="1.1" id="Layer_1" xmlns="http://www.w3.org/2000/svg" xmlns:xlink="http://www.w3.org/1999/xlink" x="0px" y="0px"
	 viewBox="0 0 257 231" style="enable-background:new 0 0 257 231;" xml:space="preserve">
<style type="text/css">
	.st0{fill:#79CAEB;}
	.st1{fill:#14A4DE;}
	.st2{fill:#FAFAFA;}
	.st3{fill:#37474F;}
	.st4{fill:#263238;}
	.st5{fill:#455A64;}
	.st6{opacity:0.15;}
	.st7{fill:#27DEBF;}
	.st8{fill:#BCE4ED;}
	.st9{fill:#F0F0F0;}
	.st10{fill:#E0E0E0;}
	.st11{opacity:0.8;fill:#455A64;}
	.st12{fill:#EBEBEB;}
	.st13{opacity:0.8;fill:#BCE4ED;}
	.st14{opacity:0.3;}
	.st15{fill:#96D0E2;}
	.st16{fill:#F3F1FF;}
	.st17{fill:#7C5BAF;}
	.st18{opacity:0.4;fill:#FFFFFF;}
	.st19{fill:#432563;}
	.st20{fill:#8B71BC;}
	.st21{fill:#B6A3E5;}
	.st22{fill:none;}
	.st23{opacity:0.2;fill:#432563;}
	.st24{opacity:0.2;}
	.st25{fill:#FFFFFF;}
	.st26{opacity:0.7;}
	.st27{opacity:0.1;}
	.st28{fill:#5B4389;}
	.st29{opacity:0.25;}
	.st30{opacity:0.4;}
	.st31{opacity:0.7;fill:#B6A3E5;}
	.st32{opacity:0.3;fill:#FFFFFF;}
	.st33{fill:#F5F5F5;}
	.st34{fill:#137B9B;}
	.st35{opacity:0.3;fill:#14A4DE;}
	.st36{opacity:0.4;fill:#14A4DE;}
	.st37{opacity:0.5;fill:#137B9B;}
	.st38{opacity:0.8;}
	.st39{fill:#FAFAFA;stroke:#E0E0E0;stroke-width:0.5249;stroke-miterlimit:10;}
	.st40{fill:none;stroke:#455A64;stroke-width:0.3937;stroke-linecap:round;stroke-linejoin:round;stroke-miterlimit:10;}
	.st41{fill:#FAFAFA;stroke:#E0E0E0;stroke-width:0.9421;stroke-miterlimit:10;}
	.st42{fill:none;stroke:#455A64;stroke-width:0.7066;stroke-linecap:round;stroke-linejoin:round;stroke-miterlimit:10;}
	.st43{fill:none;stroke:#B3B3B3;stroke-miterlimit:10;}
	.st44{fill:#B3B3B3;}
</style>
<g>
	<g>
		<path class="st1" d="M38.66,70.35c-1.88-1.86-3.41-3.39-5.01-4.97c2.65-2.56,5.27-5.09,7.85-7.58c-2.9-2.85-5.5-5.4-8.22-8.08
			c2.05-1.76,3.73-3.2,5.53-4.75c2.12,2.24,4.66,4.92,7.33,7.75c2.94-3.06,5.47-5.69,8.12-8.44c1.68,1.91,3.16,3.58,4.8,5.44
			c-2.37,2.24-5.01,4.74-7.67,7.25c2.88,2.76,5.5,5.27,8.13,7.79c-2.04,1.88-3.66,3.38-5.39,4.97c-2.2-2.32-4.74-5-7.52-7.93
			C43.72,64.92,41.24,67.58,38.66,70.35z"/>
		<g>
			<path class="st1" d="M156.43,186.71c-2.11-1.05-2.79-2.75-2.78-5.07c0.06-19.88,0.03-39.75,0.03-59.63
				c0-3.65,1.28-4.94,4.91-4.94c19.96,0,39.93,0,59.89,0c3.57,0,4.88,1.29,4.88,4.83c0,20.01-0.01,40.03,0.02,60.04
				c0,2.3-0.78,3.95-3,4.77C199.07,186.71,177.75,186.71,156.43,186.71z M161.32,179.09c18.19,0,36.24,0,54.34,0
				c0-18.17,0-36.26,0-54.37c-18.16,0-36.21,0-54.34,0C161.32,142.85,161.32,160.9,161.32,179.09z"/>
			<path class="st1" d="M124.17,186.71c-2.38-1.54-3.14-2.88-2.5-4.79c0.25-0.75,0.78-1.46,1.33-2.06c1.16-1.24,2.41-2.39,3.62-3.58
				c-0.05-0.11-0.1-0.23-0.14-0.34c-0.48,0-0.97,0-1.45,0c-5.47-0.01-10.94,0.11-16.4-0.07c-12.9-0.44-23.31-8.94-26.39-21.5
				c-0.52-2.14-0.73-4.39-0.79-6.6c-0.12-4.03-0.07-8.06-0.03-12.09c0.03-2.99,2.33-4.84,4.92-4.04c1.66,0.51,2.63,1.89,2.65,3.96
				c0.04,3.15,0.03,6.3,0.01,9.45c-0.02,3.34,0.06,6.65,1.24,9.86c2.89,7.87,10.28,13.29,18.66,13.43
				c5.83,0.1,11.67,0.02,17.85,0.02c-0.93-0.95-1.66-1.72-2.41-2.47c-0.58-0.6-1.2-1.16-1.76-1.78c-1.5-1.66-1.48-3.89,0.03-5.37
				c1.44-1.41,3.71-1.47,5.26,0.01c2.38,2.27,4.67,4.63,7,6.96c1.25,1.24,2.52,2.46,3.72,3.75c1.6,1.71,1.62,3.8-0.01,5.46
				c-3.47,3.54-6.98,7.04-10.52,10.51c-0.54,0.53-1.3,0.86-1.95,1.28C125.46,186.71,124.81,186.71,124.17,186.71z"/>
			<path class="st1" d="M223.73,96.31c-0.09,0.16-0.19,0.31-0.26,0.47c-0.74,1.97-2.32,3.01-4.14,2.73c-1.9-0.3-3.19-1.68-3.23-3.76
				c-0.08-3.94-0.04-7.88-0.04-11.82c0-2.9-0.4-5.71-1.46-8.43c-2.92-7.42-10.29-12.69-18.25-12.83c-5.7-0.1-11.4-0.03-17.1-0.04
				c-0.22,0-0.43,0.03-1.16,0.1c1.67,1.59,3.11,2.87,4.44,4.25c1.25,1.3,1.39,3.04,0.54,4.49c-0.81,1.39-2.43,2.17-4.05,1.74
				c-0.76-0.2-1.55-0.66-2.12-1.22c-3.42-3.33-6.79-6.71-10.14-10.11c-2.05-2.09-1.99-4.09,0.08-6.18
				c3.4-3.42,6.79-6.84,10.22-10.23c1.38-1.36,3.19-1.53,4.71-0.57c1.4,0.88,2.13,2.63,1.58,4.23c-0.26,0.75-0.81,1.45-1.35,2.05
				c-1.09,1.2-2.27,2.32-3.4,3.48c-0.05,0.05-0.03,0.16-0.07,0.42c0.51,0,1,0,1.49,0c5.75,0.02,11.49-0.06,17.24,0.09
				c12.51,0.32,24.18,10.85,25.93,23.27c0.17,1.23,0.35,2.46,0.53,3.7C223.73,86.85,223.73,91.58,223.73,96.31z"/>
			<path class="st1" d="M116.55,44.31c2.08,0,3.77,1.71,3.75,3.8c-0.01,2.06-1.62,3.68-3.68,3.72c-2.11,0.03-3.83-1.62-3.84-3.7
				C112.77,46.07,114.5,44.32,116.55,44.31z"/>
			<path class="st1" d="M143.85,94.64c0.02-2.12,1.68-3.72,3.83-3.69c2.04,0.03,3.68,1.68,3.69,3.72c0.01,2.04-1.76,3.82-3.79,3.81
				C145.51,98.46,143.83,96.73,143.85,94.64z"/>
			<path class="st1" d="M135.83,48.13c-0.03,2.08-1.76,3.73-3.86,3.7c-2.1-0.04-3.71-1.74-3.66-3.87c0.05-2.02,1.74-3.66,3.76-3.65
				C134.13,44.32,135.86,46.09,135.83,48.13z"/>
			<path class="st1" d="M85.46,59.87c2.09-0.02,3.8,1.66,3.81,3.74c0,2.08-1.71,3.79-3.79,3.77c-2.02-0.01-3.69-1.66-3.74-3.68
				C81.68,61.64,83.38,59.89,85.46,59.87z"/>
			<path class="st1" d="M147.67,75.41c2.04,0.02,3.68,1.67,3.7,3.71c0.02,2.04-1.74,3.81-3.78,3.82c-2.07,0-3.75-1.72-3.74-3.82
				C143.87,77,145.53,75.38,147.67,75.41z"/>
			<path class="st1" d="M104.77,110.14c0.02,2.08-1.57,3.73-3.63,3.78c-2.12,0.05-3.86-1.6-3.89-3.7c-0.02-2.06,1.74-3.84,3.81-3.82
				C103.09,106.42,104.75,108.09,104.77,110.14z"/>
			<path class="st1" d="M147.52,113.92c-2.13-0.04-3.72-1.7-3.67-3.85c0.05-2.04,1.71-3.67,3.74-3.67c2.06,0,3.8,1.76,3.78,3.81
				C151.35,112.31,149.63,113.96,147.52,113.92z"/>
			<path class="st1" d="M85.49,75.41c2.07,0,3.72,1.61,3.77,3.66c0.05,2.08-1.67,3.85-3.75,3.85c-2.07,0-3.82-1.77-3.78-3.84
				C81.77,77.05,83.43,75.42,85.49,75.41z"/>
			<path class="st1" d="M147.57,44.31c2.06-0.02,3.81,1.73,3.8,3.78c-0.01,2.02-1.67,3.7-3.69,3.74c-2.14,0.04-3.81-1.57-3.83-3.69
				C143.83,46.01,145.46,44.33,147.57,44.31z"/>
			<path class="st1" d="M120.3,110.15c0.02,2.11-1.64,3.78-3.75,3.78c-2.07,0-3.72-1.59-3.77-3.64c-0.05-2.06,1.64-3.84,3.7-3.89
				C118.53,106.35,120.29,108.07,120.3,110.15z"/>
			<path class="st1" d="M132.07,113.93c-2.12,0.01-3.77-1.65-3.76-3.77c0.01-2.08,1.75-3.8,3.8-3.76c2,0.04,3.69,1.73,3.72,3.73
				C135.86,112.21,134.16,113.92,132.07,113.93z"/>
			<path class="st1" d="M85.57,51.83c-2.09,0.03-3.82-1.65-3.84-3.72c-0.02-2.08,1.69-3.8,3.77-3.8c2.03,0,3.69,1.62,3.76,3.66
				C89.33,50.06,87.66,51.8,85.57,51.83z"/>
			<path class="st1" d="M101.01,44.31c2.08-0.01,3.77,1.68,3.76,3.78c-0.01,2.06-1.6,3.69-3.65,3.73c-2.09,0.04-3.83-1.62-3.87-3.69
				C97.21,46.1,98.96,44.33,101.01,44.31z"/>
			<path class="st1" d="M147.63,67.38c-2.09,0.02-3.78-1.65-3.78-3.76c0-2.06,1.59-3.7,3.64-3.76c2.08-0.05,3.84,1.6,3.89,3.68
				C151.42,65.58,149.69,67.36,147.63,67.38z"/>
			<path class="st1" d="M89.26,110.14c0.03,2.06-1.59,3.73-3.64,3.79c-2.11,0.05-3.86-1.61-3.88-3.71c-0.02-2.09,1.71-3.83,3.8-3.81
				C87.57,106.42,89.23,108.09,89.26,110.14z"/>
			<path class="st1" d="M89.26,94.73c-0.03,2.03-1.72,3.72-3.74,3.74c-2.06,0.02-3.82-1.75-3.79-3.83c0.03-2.1,1.75-3.75,3.88-3.7
				C87.67,91,89.29,92.68,89.26,94.73z"/>
		</g>
	</g>
</g>
</svg>
