<svg id="Layer_1" data-name="Layer 1" xmlns="http://www.w3.org/2000/svg" viewBox="0 0 257 231"><defs><style>.cls-1{fill:#14a4de;}</style></defs><path class="cls-1" d="M213.77,90.06V164.5a25.43,25.43,0,0,1-1.21,3.67C210.2,172.9,206.24,175,201,175q-14.19,0-28.39,0c-.56,0-1.11.05-1.75.08,0,2.67.1,5.17,0,7.66-.08,1.5.4,1.89,1.84,1.82,2.53-.11,5.07,0,7.64,0v4.78H99.55v-4.78c2.85,0,5.53,0,8.22,0,.41,0,1.15-.39,1.16-.61.07-2.91,0-5.83,0-8.89h-1.9c-9.37,0-18.75.06-28.12-.06a15.23,15.23,0,0,1-6-1.17c-4.76-2.18-6.88-6.2-6.88-11.37q0-26.25,0-52.5c0-6,0-11.93,0-17.89A11.81,11.81,0,0,1,76.83,79.85c1.13-.15,2.28-.16,3.59-.25V41.69H199.54v38c.8,0,1.42,0,2,0a12.38,12.38,0,0,1,8.71,3.55A14.1,14.1,0,0,1,213.77,90.06ZM85.22,65.52v71.34c5.18,0,10.27,0,15.35,0a1.07,1.07,0,0,0,.8-.44c.52-.94,1-1.93,1.49-3-1.7-.57-3.24-1.11-4.79-1.58A1.27,1.27,0,0,1,97,130.41c.06-3.6,0-7.21,0-10.82a1.26,1.26,0,0,1,1-1.44c1.6-.48,3.17-1.05,4.86-1.61-.81-1.63-1.52-3.15-2.32-4.62a1.14,1.14,0,0,1,.28-1.61c2.6-2.56,5.19-5.14,7.74-7.76a1.14,1.14,0,0,1,1.6-.27c1.47.8,3,1.51,4.62,2.33.57-1.69,1.15-3.25,1.62-4.85a1.24,1.24,0,0,1,1.43-1c3.61,0,7.21,0,10.82,0a1.25,1.25,0,0,1,1.42,1c.48,1.59,1,3.15,1.6,4.83l5.54-2.73c2.89,2.91,5.73,5.72,8.49,8.59a1.65,1.65,0,0,1,.17,1.44c-.67,1.54-1.47,3-2.28,4.63,1.7.58,3.35,1.08,4.94,1.72a1.69,1.69,0,0,1,.85,1.17,26.27,26.27,0,0,1,0,3.22,26.86,26.86,0,0,0,2.9-.46c5.62-1.56,8.94-5.91,9-11.91.06-8.5,0-17,0-25.52a10.19,10.19,0,0,0-.17-1.14l-7.31,11.66-4-2.54,13.93-22.27,13.91,22.28-4,2.52-7.22-11.53-.27.08v1.53c0,8.32,0,16.64,0,25A16.68,16.68,0,0,1,152,127.16c-.79.14-1.59.17-2.5.27a23.15,23.15,0,0,0,0,2.51,1.58,1.58,0,0,1-1.4,2c-1.48.35-2.91.95-4.42,1.46a13.11,13.11,0,0,1,.7,1.51c.5,1.53,1.43,2,3.09,2,15.14-.08,30.28,0,45.43,0h1.76V65.52ZM209,155.85V92.67c0-.44,0-.87,0-1.3-.36-4.84-4.59-7.84-9.55-6.59v56.9h-1.77q-26.31,0-52.63,0a3,3,0,0,0-2.39,1c-1.74,1.85-3.56,3.63-5.36,5.46l-5.57-2.75c-.57,1.74-1.13,3.32-1.62,4.92a1.16,1.16,0,0,1-1.33.94c-3.61,0-7.21,0-10.82,0a1.32,1.32,0,0,1-1.52-1.11c-.46-1.59-1-3.14-1.58-4.76l-5.58,2.76c-1.85-1.88-3.62-3.77-5.51-5.54a3.37,3.37,0,0,0-2.1-.86c-6.54-.07-13.07,0-19.61,0H80.36v-57c-5.61-1-9.48,2.14-9.48,7.62q0,31.16,0,62.31c0,.41.07.82.11,1.23ZM194.67,46.5H85.23v14H194.67Zm14.26,114.35H70.77a27.67,27.67,0,0,0,.4,4.12c.85,3.42,3.68,5.29,7.77,5.29h122c.48,0,1,0,1.44,0a7.18,7.18,0,0,0,5.16-2.8C209,165.49,209.09,163.26,208.93,160.85Zm-72.54-18.5c.49-.55.89-1,1.31-1.48.92-1,2.42-1.86,2.59-3s-.93-2.42-1.57-3.59a3.25,3.25,0,0,1-.23-2.81c.51-1.71,1.8-2.05,3.16-2.49,3.06-1,3.06-1,3.06-4.11s0-3-2.91-3.94c-1.47-.47-2.87-.81-3.34-2.66a2.92,2.92,0,0,1,.12-2.42,27.56,27.56,0,0,0,1.6-3.22,1.39,1.39,0,0,0-.15-1.21c-1.17-1.33-2.42-2.58-3.64-3.86-1.56.78-2.91,1.53-4.32,2.1a4,4,0,0,1-2,.06,3.19,3.19,0,0,1-2.7-2.89,12.56,12.56,0,0,0-.88-2.59,1.27,1.27,0,0,0-.87-.69c-1.77,0-3.78-.46-5.24.24-1,.45-1.12,2.58-1.61,4a3.44,3.44,0,0,1-4.48,1.88l-4.22-2.09c-.29.38-.51.71-.77,1-1.07,1.15-2.81,2.17-3,3.48s1.17,2.7,1.73,4.12a3.72,3.72,0,0,1,.09,1.85c-.26,1.76-1.51,2.49-3.11,2.86a14.14,14.14,0,0,0-2.45.83c-.29.12-.66.48-.67.73,0,1.82-.43,3.83.23,5.39.37.89,2.5,1.05,3.84,1.54,0,0,.09.05.13.05.9.15,1.28.73,1.69,1.53a3.34,3.34,0,0,1-.14,3.72,13.15,13.15,0,0,0-1.29,2.57,1.46,1.46,0,0,0,.15,1.23c1.16,1.33,2.41,2.6,3.62,3.87,1.29-.64,2.41-1.09,3.41-1.72a3.41,3.41,0,0,1,3.73-.18,2.73,2.73,0,0,1,1.61,1.81,31.39,31.39,0,0,0,1.1,3.27c.13.33.5.8.78.81,1.82,0,3.81.4,5.39-.22.86-.34,1-2.42,1.51-3.71.07-.18.13-.36.19-.54a3.62,3.62,0,0,1,4.13-1.74C133.37,140.83,134.77,141.55,136.39,142.35Zm-22.63,42.09h52.31V175.1H113.76Z"/><path class="cls-1" d="M139.94,89.21a9.51,9.51,0,1,1,9.5-9.54A9.54,9.54,0,0,1,139.94,89.21Zm4.72-9.52a4.74,4.74,0,0,0-9.47,0,4.74,4.74,0,1,0,9.47,0Z"/><path class="cls-1" d="M189.9,122.59a9.56,9.56,0,0,1-9.5,9.55,9.68,9.68,0,0,1-9.51-9.6,9.57,9.57,0,0,1,9.48-9.43A9.45,9.45,0,0,1,189.9,122.59Zm-9.52,4.73a4.75,4.75,0,0,0,4.81-4.71,4.86,4.86,0,0,0-4.8-4.78,4.78,4.78,0,0,0-4.7,4.69A4.69,4.69,0,0,0,180.38,127.32Z"/><path class="cls-1" d="M48.87,77.33l-5.25-5.2,8.22-7.94-8.61-8.46,5.79-5,7.67,8.11L65.19,50l5,5.7-8,7.6,8.52,8.16-5.64,5.2-7.87-8.3Z"/><path class="cls-1" d="M90,51.17h4.54V55.8H90Z"/><path class="cls-1" d="M99.54,51.18h4.52v4.61H99.54Z"/><path class="cls-1" d="M113.63,51.24v4.59h-4.55V51.24Z"/><path class="cls-1" d="M135.12,124.93a11.88,11.88,0,1,1-12-11.82A11.87,11.87,0,0,1,135.12,124.93Zm-4.73,0a7.14,7.14,0,1,0-7.15,7.18A7.24,7.24,0,0,0,130.39,125Z"/></svg>