<svg id="Layer_1" data-name="Layer 1" xmlns="http://www.w3.org/2000/svg" viewBox="0 0 257 231"><defs><style>.cls-1{fill:#14a4de;}</style></defs><path class="cls-1" d="M73.14,70.32C80.61,64.71,88.39,58.84,96.22,53c1-.75.44-1.44.29-2.17A9.5,9.5,0,0,1,100,40.94a9.3,9.3,0,0,1,10.59-1.09c3.64,1.84,5.71,5,5.33,9-.22,2.37.74,3.16,2.44,4.14,7.16,4.1,14.24,8.33,21.35,12.51l1.51.85c2.76-2.42,5.89-3.5,9.46-2.51a37.82,37.82,0,0,1,3.6,1.69,2.24,2.24,0,0,0,1.72.06c7.16-4.4,14.27-8.87,21.42-13.29a1.53,1.53,0,0,0,.8-1.87,9.84,9.84,0,0,1,8.7-11.67,10,10,0,0,1,10.89,9.73,9.78,9.78,0,0,1-10.59,10,15.72,15.72,0,0,1-5.13-1.9c-.77-.38-1.24-.61-2-.11q-10.66,6.72-21.39,13.35a1.44,1.44,0,0,0-.74,1.76,9.41,9.41,0,0,1-4.18,10.07,9.57,9.57,0,0,1-10.92,0,9.69,9.69,0,0,1-4.33-9.91A1.75,1.75,0,0,0,138,70.3c-8.19-4.89-16.41-9.72-24.73-14.63a10.44,10.44,0,0,1-6.49,2.87A10,10,0,0,1,100,56.37l-7.15,5.37c-5.24,3.93-10.47,7.88-15.74,11.76a2.08,2.08,0,0,0-1,2.62,9.63,9.63,0,0,1-4.34,10.7A9.93,9.93,0,0,1,57.28,74.71a9.66,9.66,0,0,1,9.78-6.16C69,68.74,70.85,69.63,73.14,70.32Zm38-21.62a5,5,0,1,0-5,4.9A5,5,0,0,0,111.11,48.7Zm37.18,29.67a4.95,4.95,0,1,0-5-4.89A5,5,0,0,0,148.29,78.37Zm-76.83.06a4.95,4.95,0,1,0-4.95,4.9A5,5,0,0,0,71.46,78.43ZM192.87,48.66A5,5,0,1,0,188,53.6,5,5,0,0,0,192.87,48.66Z"/><path class="cls-1" d="M147,179.18l3.5,3.15c-7.17,8.67-21.65,13.43-34.92,7a29.74,29.74,0,0,1,14.8-56.48,30.27,30.27,0,0,1,27.91,32l2.9-3.78,3.93,3c-2.56,3.4-5,6.72-7.53,10a2.3,2.3,0,0,1-3.76,0c-2.53-3.24-5-6.56-7.53-10l3.95-3,2.63,3.44c2.43-7.73-4.56-20-13.78-24.34a24.79,24.79,0,1,0,7.9,38.94Z"/><path class="cls-1" d="M200.31,155.09h-4.92V78.49H180.5v76.6h-5V77c0-2.84.72-3.55,3.57-3.55q9,0,18.11,0c2.22,0,3.09.87,3.09,3.09q0,38.7,0,77.41Z"/><path class="cls-1" d="M121,127.84H116.1V78.49H101.22v61.74h-5V77c0-2.84.71-3.55,3.56-3.55q9.14,0,18.27,0c2,0,2.94.91,2.94,2.94q0,25.3,0,50.62C121,127.24,121,127.49,121,127.84Z"/><path class="cls-1" d="M81.33,155.09H76.46V103.26H61.58V155.1h-5V101.75c0-2.84.71-3.55,3.56-3.55q9.14,0,18.27,0c2,0,2.94.92,2.94,2.94q0,26.55,0,53.1C81.38,154.49,81.35,154.74,81.33,155.09Z"/><path class="cls-1" d="M155.76,103.23H140.88v24.58H136c0-.45-.08-.9-.08-1.34V101.54c0-2.54.79-3.34,3.31-3.34q9.21,0,18.42,0c2.14,0,3,.88,3,3q0,19,0,38.08c0,.3,0,.6,0,1h-4.85Z"/><path class="cls-1" d="M93.7,160.23V165H51.77v-4.77Z"/><path class="cls-1" d="M205.23,160.25V165H170.68v-4.71Z"/><path class="cls-1" d="M126,145.33h5v4.2c0,4.94,0,9.89,0,14.84a3.21,3.21,0,0,1-2,3.26c-3.06,1.46-6.07,3-9.25,4.62l-2.22-4.43c2.53-1.26,4.94-2.51,7.38-3.67a1.75,1.75,0,0,0,1.17-1.87C126,156.67,126,151.06,126,145.33Z"/></svg>