<svg xmlns="http://www.w3.org/2000/svg" xmlns:xlink="http://www.w3.org/1999/xlink" id="Layer_1" x="0px" y="0px" viewBox="0 0 257 231" style="enable-background:new 0 0 257 231;" xml:space="preserve"><style type="text/css">	.st0{fill:#79CAEB;}</style><g>	<path class="st0" d="M41.13,155.65c0-1.21,0-2.05,0-2.89c0-30.84,0-61.68,0-92.52c0-5.6,2.86-9.63,7.78-10.88  c1.17-0.3,2.43-0.35,3.65-0.35C103.19,49,153.81,49,204.44,49.01c7.28,0,11.42,4.16,11.43,11.43c0.01,30.84,0,61.68,0,92.52  c0,0.77,0,1.54,0,2.69c2.39,0,4.68,0,6.97,0c3.76,0.01,4.35,0.54,4.29,4.24c-0.05,2.96,0.1,6-0.48,8.87  c-1.5,7.48-7.92,12.74-15.52,13.12c-0.77,0.04-1.55,0.06-2.33,0.06c-53.53,0-107.07-0.07-160.6,0.06  c-10.22,0.02-16.15-6.33-17.56-12.12c-0.66-2.72-0.69-5.62-0.74-8.45c-0.1-5.78-0.03-5.78,5.83-5.78  C37.45,155.65,39.18,155.65,41.13,155.65z M210.45,155.65c0-1.02,0-1.73,0-2.43c0-30.71,0-61.42,0-92.13  c0-0.71,0.01-1.43-0.05-2.13c-0.22-2.41-1.96-4.19-4.35-4.46c-0.64-0.07-1.29-0.07-1.94-0.07c-50.43,0-100.86,0-151.29,0  c-0.71,0-1.43,0-2.13,0.1c-2.11,0.3-3.78,1.99-4.06,4.11c-0.09,0.7-0.08,1.42-0.08,2.13c0,30.9,0,61.81,0,92.71  c0,0.64,0,1.27,0,2.17c0.92,0,1.68,0,2.44,0c9.76,0,19.52,0,29.29,0c9.25,0,18.49,0.03,27.74-0.03c2.06-0.01,3.27,0.78,3.84,2.76  c0.46,1.6,1.07,3.17,1.64,4.82c0.79,0,1.49,0,2.2,0c9.18,0,18.36,0,27.54,0c4.31,0,4.31,0,5.73-4.12c1.14-3.3,1.32-3.43,4.86-3.43  c18.68,0,37.37,0,56.05,0C208.65,155.65,209.41,155.65,210.45,155.65z M35.41,161.03c-0.34,4.13-0.3,7.9,2.32,11.13  c2.61,3.2,6.02,4.38,10.09,4.38c53.73-0.04,107.45-0.02,161.18-0.02c0.52,0,1.03-0.01,1.55-0.01c6.52-0.08,12.9-5.92,10.81-15.47  c-3.7,0-7.44,0-11.17,0c-17.72,0-35.43,0-53.15,0c-5,0-5.07-0.02-6.63,4.77c-0.67,2.04-1.81,2.86-3.96,2.85  c-10.99-0.07-21.98-0.04-32.97-0.03c-6.48,0-5.73,0.51-7.75-5.59c-0.52-1.56-1.22-2.04-2.85-2.04  c-18.81,0.06-37.63,0.04-56.44,0.04C42.82,161.03,39.21,161.03,35.41,161.03z"></path>	<path class="st0" d="M128.52,150.34c-24.05,0-48.09,0-72.14,0c-3.91,0-4.56-0.63-4.56-4.45c0-27.28,0-54.55,0-81.83  c0-3.71,0.68-4.38,4.44-4.38c48.15,0,96.31,0,144.46,0c3.82,0,4.47,0.66,4.47,4.55c0,27.21,0,54.42,0,81.64  c0,3.82-0.67,4.48-4.54,4.48C176.61,150.34,152.56,150.34,128.52,150.34z M199.69,65.26c-47.57,0-94.92,0-142.3,0  c0,26.62,0,53.09,0,79.53c47.51,0,94.86,0,142.3,0C199.69,118.23,199.69,91.81,199.69,65.26z"></path>	<g>		<path class="st0" d="M162.24,102.78c0,7.44,0.01,14.87,0,22.31c0,3.08-0.92,4.02-3.92,4.03c-3.54,0.02-7.09,0.02-10.63,0   c-2.58-0.02-3.62-0.97-3.62-3.48c-0.03-15.29-0.03-30.58,0-45.87c0.01-2.41,1.07-3.37,3.49-3.39c3.68-0.03,7.37-0.02,11.05,0   c2.62,0.02,3.62,1.01,3.63,3.68C162.25,87.62,162.24,95.2,162.24,102.78z M150,82.28c0,13.76,0,27.3,0,40.86c2.18,0,4.22,0,6.27,0   c0-13.7,0-27.24,0-40.86C154.15,82.28,152.16,82.28,150,82.28z"></path>		<path class="st0" d="M119.41,107.93c0-5.56-0.01-11.12,0-16.68c0.01-3.19,0.89-4.04,4.12-4.05c3.54-0.01,7.09-0.03,10.63,0.01   c2.37,0.03,3.42,1.08,3.43,3.47c0.02,11.67,0.03,23.35,0,35.02c-0.01,2.37-1.08,3.39-3.48,3.41c-3.68,0.04-7.37,0.03-11.05,0   c-2.66-0.02-3.62-0.97-3.64-3.68C119.39,119.6,119.41,113.76,119.41,107.93z M125.37,123.15c2.17,0,4.2,0,6.29,0   c0-10.07,0-19.99,0-29.96c-2.16,0-4.19,0-6.29,0C125.37,103.25,125.37,113.17,125.37,123.15z"></path>		<path class="st0" d="M112.98,113.82c0,3.83,0.01,7.65,0,11.48c-0.01,2.81-0.97,3.8-3.71,3.82c-3.62,0.03-7.23,0.03-10.85,0   c-2.59-0.02-3.6-0.95-3.61-3.5c-0.04-7.93-0.04-15.86,0-23.79c0.01-2.54,1.04-3.52,3.6-3.56c3.69-0.05,7.37-0.05,11.06,0   c2.49,0.04,3.49,1.11,3.51,3.64C113,105.89,112.98,109.85,112.98,113.82z M100.74,123.16c2.17,0,4.2,0,6.29,0   c0-6.39,0-12.61,0-18.92c-2.15,0-4.18,0-6.29,0C100.74,110.62,100.74,116.85,100.74,123.16z"></path>	</g></g></svg>