<svg xmlns="http://www.w3.org/2000/svg" xmlns:xlink="http://www.w3.org/1999/xlink" id="Layer_1" x="0px" y="0px" viewBox="0 0 257 231" style="enable-background:new 0 0 257 231;" xml:space="preserve"><style type="text/css">	.st0{fill:#79CAEB;}</style><g>	<path class="st0" d="M42.01,93.88c0.58-1.57,0.99-3.24,1.77-4.71c1.86-3.5,4.88-5.65,8.66-6.78c5.28-1.57,10.56-3.14,15.82-4.77  c0.61-0.19,1.57-0.72,1.58-1.1c0.01-1.27,0.13-3.12-0.62-3.72c-5.64-4.55-8.04-10.39-7.66-17.5c0.21-3.92-0.09-7.98,0.83-11.72  c3.04-12.31,17.57-18.35,28.57-12.05c4.62,2.64,9.36,4.88,14.46,6.37c0.59,0.17,1.15,0.42,2.2,0.81c-2.11,3.34-4.16,6.52-6.14,9.74  c-0.44,0.71-0.82,1.58-0.87,2.39c-0.22,3.25-0.05,6.54-0.48,9.75c-0.62,4.59-3.1,8.26-6.59,11.25c-1.06,0.91-1.84,3.81-1.17,4.99  c0.22,0.39,0.88,0.6,1.38,0.75c5.21,1.59,10.44,3.13,15.66,4.72c7.05,2.15,10.66,7.01,10.69,14.35c0.02,4.99,0,9.99,0,14.66  c2.17-0.45,4.26-1.3,6.32-1.22c5.53,0.2,9.09,5.96,7.02,11.08c-0.41,1.02-0.26,1.61,0.42,2.36c1.62,1.8,3.19,3.64,4.72,5.52  c0.56,0.68,1.09,1.1,1.97,0.65c0.05-0.02,0.11-0.04,0.16-0.03c3,0.51,4.04-1.52,5.25-3.72c4.77-8.67,9.66-17.27,14.53-25.89  c0.49-0.87,0.7-1.51,0.03-2.53c-2.55-3.91-1.27-9.09,2.69-11.47c4.07-2.46,9.2-1.18,11.52,3c0.58,1.06,1.19,1.38,2.33,1.37  c6.76-0.05,13.51-0.04,20.27-0.01c0.93,0,1.47-0.21,1.96-1.12c1.91-3.57,5.63-5.18,9.39-4.22c3.64,0.93,6.27,4.29,6.29,8.04  c0.02,3.73-2.59,7.14-6.2,8.11c-3.8,1.02-7.5-0.66-9.59-4.23c-0.29-0.5-1.04-1.02-1.59-1.03c-6.98-0.07-13.96-0.07-20.94,0  c-0.56,0.01-1.34,0.48-1.63,0.97c-1.83,3.09-4.43,4.65-8.06,4.59c-0.48-0.01-1.17,0.53-1.44,1c-5.44,9.59-10.81,19.21-16.26,28.79  c-0.5,0.88-0.23,1.37,0.21,2.08c1.84,2.96,1.84,6.01-0.05,8.91c-1.88,2.88-4.66,4.22-8.1,3.72c-3.49-0.5-5.97-2.51-6.78-5.95  c-0.39-1.65-0.09-3.54,0.25-5.25c0.18-0.93,0.22-1.51-0.43-2.22c-1.62-1.79-3.2-3.63-4.73-5.51c-0.61-0.75-1.17-0.88-2.14-0.77  c-1.41,0.16-2.87-0.11-4.32-0.14c-0.55-0.01-1.31-0.08-1.63,0.23c-5.22,5.12-10.38,10.31-15.82,15.73c1.34,1.08,2.6,2.11,3.93,3.19  c-1.29,1.94-2.44,3.52-3.42,5.21c-0.32,0.56-0.34,1.41-0.23,2.08c0.57,3.25,2.73,4.56,5.86,4.7c0.83,0.04,1.65,0.31,2.59,0.5  c0,5.18,0,10.34,0,15.72c-1.77,0.36-3.61,0.77-5.47,1.09c-1.04,0.18-1.48,0.76-2.05,1.64c-1.7,2.69-0.93,4.78,0.86,7.04  c1.83,2.33,1.69,2.44-0.4,4.53c-2.98,2.98-5.96,5.97-9.03,9.04c-1.73-1.15-3.37-2.32-5.09-3.34c-0.48-0.29-1.2-0.16-1.82-0.21  c-0.05,0-0.09,0.07-0.15,0.08c-5,0.89-4.39,5.09-5.05,8.54c-5.29,0-10.59,0-15.88,0c-0.19-0.94-0.54-1.88-0.53-2.81  c0.04-3.31-1.69-5.1-4.76-5.78c-0.57-0.13-1.33-0.12-1.8,0.17c-1.73,1.03-3.37,2.2-4.77,3.13c-3.84-3.8-7.53-7.47-11.27-11.18  c0.86-1.29,1.72-2.76,2.76-4.08c0.88-1.12,0.67-2.02,0.33-3.34c-0.72-2.77-2.46-3.69-5.03-3.86c-1.11-0.07-2.21-0.41-3.31-0.63  c0-5.29,0-10.59,0-15.88c3.44-0.68,7.65-0.05,8.54-5.05c0.01-0.05,0.08-0.1,0.08-0.15c-0.05-0.61,0.08-1.34-0.21-1.82  c-1.02-1.72-2.19-3.36-3.35-5.1c3.07-3.06,6.05-6.04,9.04-9.02c2.1-2.1,2.21-2.24,4.53-0.41c2.26,1.78,4.35,2.58,7.04,0.87  c0.88-0.56,1.48-0.98,1.66-2.03c0.32-1.86,0.73-3.71,1.1-5.5c5.37,0,10.52,0,15.72,0c0.2,0.98,0.51,1.86,0.52,2.74  c0.05,3.25,1.67,5.15,4.8,5.79c0.57,0.11,1.32,0.09,1.79-0.19c1.73-1.02,3.37-2.18,5.32-3.47c1.07,1.31,2.1,2.57,2.96,3.62  c4.84-4.83,9.44-9.43,14.13-14.11c-0.56,0-1.15,0-1.74,0c-16.55,0-33.09,0-49.64,0c-7.43,0-14.86,0.03-22.28,0.04  C42.01,113.92,42.01,103.9,42.01,93.88z M54.31,146.42c0.91,1.38,1.85,2.65,2.6,4.02c0.28,0.51,0.32,1.34,0.11,1.89  c-1,2.62-2.18,5.16-3.16,7.78c-0.32,0.87-0.71,1.23-1.61,1.4c-1.52,0.28-3.6,0.29-4.36,1.26c-0.78,1-0.21,3.01-0.31,4.58  c-0.08,1.18,0.16,1.92,1.56,1.99c1.06,0.05,2.14,0.26,3.13,0.64c0.61,0.24,1.25,0.82,1.52,1.42c0.64,1.43,0.77,3.16,1.64,4.4  c2.14,3.05,2.08,5.71-0.51,8.4c-0.26,0.27-0.16,1.27,0.14,1.63c0.93,1.12,1.98,2.17,3.1,3.1c0.36,0.3,1.21,0.39,1.64,0.18  c1.1-0.55,2.11-1.28,3.1-2.03c0.72-0.54,1.27-0.59,2.1-0.11c1.5,0.86,3.06,1.86,4.72,2.18c3.28,0.63,5,2.3,4.97,5.67  c-0.01,1.35,0.71,1.7,1.93,1.6c1.61-0.13,3.67,0.42,4.72-0.38c0.96-0.73,0.76-2.91,1.24-4.4c0.18-0.56,0.75-1.17,1.3-1.42  c2.6-1.17,5.24-2.26,7.9-3.3c0.47-0.18,1.2-0.19,1.61,0.05c1.45,0.83,2.81,1.81,4.47,2.91c0.75-0.87,1.39-1.73,2.16-2.47  c0.76-0.74,1.64-1.35,2.47-2.02c-1.05-1.58-1.76-2.79-2.61-3.89c-0.75-0.96-0.85-1.74-0.17-2.85c0.85-1.37,1.74-2.87,2.02-4.42  c0.58-3.22,2.22-4.9,5.52-4.89c1.35,0.01,1.84-0.64,1.7-2c-0.16-1.6,0.42-3.67-0.39-4.71c-0.74-0.96-2.92-0.74-4.41-1.22  c-0.56-0.18-1.14-0.76-1.39-1.31c-1.15-2.55-2.23-5.14-3.23-7.75c-0.21-0.56-0.2-1.4,0.08-1.92c0.77-1.41,1.74-2.71,2.47-3.82  c-1.62-1.69-3.1-3.21-4.63-4.8c-1.17,0.77-2.42,1.53-3.59,2.4c-0.87,0.66-1.55,0.73-2.55,0.14c-1.54-0.9-3.18-1.87-4.89-2.2  c-3.08-0.59-4.48-2.28-4.51-5.28c-0.01-1.55-0.78-1.99-2.23-1.85c-1.5,0.14-3.53-0.48-4.41,0.28c-0.96,0.83-0.91,2.86-1.2,4.39  c-0.18,0.95-0.65,1.32-1.57,1.64c-2.53,0.9-5.02,1.94-7.44,3.1c-0.91,0.44-1.49,0.42-2.27-0.14c-1.26-0.91-2.6-1.72-3.84-2.53  C57.37,143.37,55.9,144.84,54.31,146.42z M70.9,82.68c-5.71,1.72-11.2,3.36-16.68,5.03c-4.51,1.38-6.57,4.1-6.6,8.8  c-0.04,6.81-0.01,13.63-0.01,20.44c0,0.38,0.06,0.75,0.11,1.21c3.68,0,7.26,0,11.07,0c0-7.4,0-14.74,0-22.13c1.95,0,3.66,0,5.57,0  c0,7.44,0,14.78,0,22.1c2.99,0,5.78,0,8.65,0c0.6-5.47,1.2-10.83,1.78-16.19c0.21-2.01,0.9-4.16,0.43-6  C74.09,91.5,72.41,87.2,70.9,82.68z M114.5,118.2c0.04-0.46,0.07-0.73,0.07-1c0-6.98,0.05-13.95-0.01-20.93  c-0.04-4.33-2.25-7.2-6.38-8.48c-4.45-1.38-8.92-2.7-13.39-4.03c-1.16-0.35-2.33-0.67-3.58-1.03c-1.48,4.47-2.92,8.78-4.33,13.09  c-0.1,0.31-0.15,0.66-0.11,0.99c0.74,6.82,1.49,13.64,2.27,20.45c0.04,0.35,0.43,0.94,0.67,0.94c2.67,0.07,5.34,0.04,8.15,0.04  c0-7.56,0-14.85,0-22.17c1.91,0,3.67,0,5.64,0c0,7.46,0,14.79,0,22.13C107.26,118.2,110.8,118.2,114.5,118.2z M94.86,53.11  c-1.59,0.29-3.17,0.71-4.77,0.86c-5.06,0.48-9.52-1.15-13.51-4.16c-0.91-0.68-1.67-0.71-2.74-0.32c-1.78,0.65-3.65,1.1-5.51,1.46  c-0.99,0.19-1.31,0.57-1.27,1.54c0.06,1.51-0.02,3.04,0.03,4.55C67.42,67.05,76.1,73.11,85.62,70  C92.26,67.84,96.12,60.78,94.86,53.11z M67.64,45.72c2.45-0.92,4.58-1.59,6.59-2.53c1.12-0.53,1.88-0.47,2.86,0.24  c1.82,1.31,3.69,2.58,5.66,3.65c5.99,3.26,14.16,0.62,16.35-4.97c-3.88-2.06-7.66-4.24-11.59-6.14  C79.54,32.14,69.63,36.81,67.64,45.72z M75.6,76.06c-0.71,2.37,0.68,3.78,2.52,4.99c2.14,1.42,4.21,1.2,6.27-0.21  c1.84-1.26,2.78-2.84,2.18-4.78C82.83,76.06,79.23,76.06,75.6,76.06z M78.62,118.12c1.68,0,3.26,0,4.9,0  c-0.73-6.51-1.45-12.89-2.17-19.26c-0.19,0-0.38,0-0.57,0C80.06,105.25,79.35,111.63,78.62,118.12z M209.33,93.13  c-0.03-1.51-1.18-2.66-2.69-2.67c-1.57-0.01-2.82,1.24-2.78,2.78c0.03,1.47,1.25,2.66,2.72,2.68  C208.15,95.93,209.36,94.71,209.33,93.13z M167.55,95.92c1.5,0,2.8-1.29,2.78-2.77c-0.02-1.5-1.31-2.73-2.84-2.69  c-1.46,0.03-2.65,1.22-2.68,2.67C164.78,94.64,166.03,95.91,167.55,95.92z M125.63,121.02c1.53,0.04,2.85-1.22,2.84-2.74  c0-1.4-1.27-2.71-2.68-2.76c-1.51-0.05-2.81,1.23-2.81,2.77C122.98,119.78,124.15,120.99,125.63,121.02z M142.41,135.09  c-1.51,0.02-2.77,1.32-2.72,2.82c0.05,1.53,1.33,2.7,2.88,2.64c1.47-0.05,2.6-1.23,2.6-2.72  C145.17,136.27,143.96,135.07,142.41,135.09z M83.72,87.49c-1.91,0-3.51,0-5.32,0c0.6,1.78,1.13,3.47,1.75,5.13  c0.1,0.26,0.58,0.55,0.86,0.52c0.36-0.03,0.88-0.29,1-0.58C82.62,90.95,83.12,89.3,83.72,87.49z"></path>	<path class="st0" d="M114.65,202c0-1.79,0-3.59,0-5.56c1.79,0,3.52,0,5.41,0c0-15.86,0-31.54,0-47.34c5.65,0,11.13,0,16.8,0  c0,15.69,0,31.37,0,47.18c1.89,0,3.6,0,5.5,0c0-11.95,0-23.91,0-36.01c5.66,0,11.14,0,16.8,0c0,11.94,0,23.9,0,36  c1.89,0,3.6,0,5.52,0c0-25.88,0-51.8,0-77.86c5.68,0,11.16,0,16.82,0c0,25.93,0,51.85,0,77.88c1.9,0,3.61,0,5.55,0  c0-30.61,0-61.2,0-91.86c5.67,0,11.12,0,16.76,0c0,30.6,0,61.19,0,91.98c3.82,0,7.45,0,11.19,0c0,2,0,3.8,0,5.59  C181.54,202,148.1,202,114.65,202z M192.77,110.01c0,28.83,0,57.52,0,86.25c1.84,0,3.59,0,5.33,0c0-28.82,0-57.5,0-86.25  C196.29,110.01,194.62,110.01,192.77,110.01z M175.79,196.3c0-24.15,0-48.19,0-72.31c-1.82,0-3.53,0-5.32,0  c0,24.14,0,48.19,0,72.31C172.28,196.3,173.99,196.3,175.79,196.3z M131.16,196.3c0-13.91,0-27.72,0-41.61c-1.81,0-3.52,0-5.32,0  c0,13.91,0,27.72,0,41.61C127.65,196.3,129.36,196.3,131.16,196.3z M148.2,165.84c0,10.29,0,20.38,0,30.42c1.86,0,3.56,0,5.23,0  c0-10.24,0-20.33,0-30.42C151.61,165.84,149.94,165.84,148.2,165.84z"></path>	<path class="st0" d="M103.5,202c0-1.78,0-3.57,0-5.47c1.77,0,3.48,0,5.41,0c0,1.83,0,3.65,0,5.47C107.1,202,105.3,202,103.5,202z"></path>	<path class="st0" d="M94.12,176.99c-1.52-1.09-2.93-2.1-4.46-3.19c2.25-3.37,3.04-7.03,2.25-10.94c-0.56-2.76-1.91-5.15-3.95-7.12  c-3.79-3.66-10.58-5.88-17.81-1.45c-1.03-1.45-2.07-2.91-3.11-4.36c7.41-5.55,18.01-4.75,24.83,1.81  C98.75,158.33,99.73,168.92,94.12,176.99z"></path>	<path class="st0" d="M86.38,177.18c1.04,1.45,2.05,2.85,3.06,4.25c-4.99,4.53-16.37,5.94-24.17-1.17  c-7.38-6.72-8.71-18.36-2.77-25.73c1.4,0.99,2.81,1.99,4.31,3.06c-3.75,6.56-3.56,12.89,1.95,18.17  C73.98,180.76,80.1,180.84,86.38,177.18z"></path>	<path class="st0" d="M78.3,174.04c-4.67,0.01-8.35-3.67-8.34-8.34c0.01-4.57,3.67-8.27,8.22-8.31c4.63-0.04,8.41,3.66,8.44,8.28  C86.65,170.3,82.93,174.03,78.3,174.04z M78.28,162.97c-1.49,0-2.8,1.32-2.77,2.8c0.02,1.4,1.28,2.68,2.69,2.73  c1.47,0.05,2.81-1.23,2.83-2.72C81.05,164.25,79.79,162.97,78.28,162.97z"></path></g></svg>