<svg xmlns="http://www.w3.org/2000/svg" xmlns:xlink="http://www.w3.org/1999/xlink" id="Layer_1" x="0px" y="0px" viewBox="0 0 257 231" style="enable-background:new 0 0 257 231;" xml:space="preserve"><style type="text/css">	.st0{fill:#79CAEB;}</style><g>	<path class="st0" d="M48.24,76.57c0.85-0.96,1.76-1.84,3.2-1.26c1.43,0.58,1.51,1.81,1.51,3.13c-0.01,25.55-0.01,51.1-0.01,76.66  c0,2.53,0.16,2.7,2.63,2.7c2.46,0,4.91-0.04,7.37,0.02c0.85,0.02,1.26-0.25,1.62-1.05c3.89-8.45,10.45-13.57,19.62-15.07  c7.87-1.28,14.88,0.91,20.96,6.07c0.32,0.27,0.62,0.56,0.94,0.83c0.04,0.03,0.09,0.05,0.31,0.15c0.46-0.32,1-0.7,1.54-1.08  c2.06-1.49,3.67-1.37,5.04,0.79c1.64,2.59,3.08,5.32,4.4,8.08c0.47,0.98,0.88,1.3,1.92,1.28c3.49-0.06,6.99-0.02,10.7-0.02  c0-0.72,0-1.33,0-1.94c0-13.69,0-27.38,0-41.07c0-4.12,1.79-5.9,5.92-5.9c17.61,0,35.22,0,52.83,0c4.12,0,5.93,1.81,5.93,5.91  c0,8.41,0,16.83,0,25.24c0,0.47,0.05,0.96-0.05,1.41c-0.28,1.28-1.07,2.03-2.43,1.96c-1.28-0.06-1.99-0.82-2.2-2.05  c-0.08-0.46-0.03-0.94-0.03-1.41c0-8.15,0-16.3,0-24.45c0-0.56,0-1.13,0-1.8c-18.44,0-36.74,0-55.16,0c0,22.74,0,45.43,0,68.23  c4.05,0,8.04,0,12.22,0c0-1.49-0.02-2.94,0-4.39c0.04-2.54,1.44-4.02,3.99-4.03c7.52-0.03,15.05-0.03,22.57,0  c2.57,0.01,3.94,1.41,4.03,3.99c0.05,1.45,0.01,2.9,0.01,4.43c4.18,0,8.17,0,12.34,0c0-0.63,0-1.19,0-1.74c0-8.94,0-17.87,0-26.81  c0-0.42-0.02-0.84,0.01-1.25c0.1-1.44,1.1-2.41,2.4-2.38c1.24,0.04,2.22,0.97,2.27,2.34c0.06,1.82,0.02,3.65,0.02,5.69  c2.77,0,5.47,0.05,8.15-0.06c0.43-0.02,0.92-0.71,1.2-1.2c0.18-0.31,0.06-0.82,0.06-1.23c0-30.83,0-61.66,0-92.49  c0-0.51,0-1.03,0-1.63c-50.39,0-100.63,0-151.12,0c0,1.37-0.03,2.76,0.01,4.14c0.03,1.35,0.03,2.69-1.46,3.32  c-1.4,0.6-2.35-0.26-3.25-1.16c0-8.26,0-16.51,0-24.77c1.3-3.07,3.47-4.71,6.97-4.7c48.9,0.04,97.8,0.02,146.7,0.03  c4.41,0,6.86,2.48,6.86,6.91c0,36.88,0,73.77,0,110.65c0,4.53-2.4,6.9-6.99,6.91c-2.33,0-4.66,0-7.12,0c0,0.76,0,1.32,0,1.89  c0,5.69,0.01,11.39-0.01,17.08c-0.01,3.22-1.95,5.21-5.14,5.24c-4.18,0.04-8.36,0.03-12.54,0c-2.73-0.02-4.01-1.31-4.06-4.05  c-0.03-1.45,0-2.89,0-4.35c-7.19,0-14.15,0-21.2,0c0,1.48,0.01,2.83,0,4.19c-0.02,2.91-1.3,4.2-4.22,4.22  c-3.97,0.02-7.94,0.01-11.91,0c-3.75-0.01-5.59-1.82-5.6-5.55c-0.01-5.64,0-11.28-0.01-16.93c0-0.55-0.05-1.11-0.07-1.64  c-3.71,0-7.24,0-10.87,0c0.06,0.94,0.11,1.76,0.16,2.59c0.42,7.29-1.61,13.82-6.11,19.57c-2.66,3.4-3.56,3.52-6.97,0.95  c-9.18,7.65-19.32,9.73-30.06,4.02c-10.72-5.7-14.66-15.27-13.44-27.24c-2.31,0-4.51-0.12-6.68,0.03  c-3.76,0.26-6.35-1.19-7.69-4.75C48.24,130.71,48.24,103.64,48.24,76.57z M204.06,56.27c0-3.68,0-7.18,0-10.68  c0-2.69-0.17-2.86-2.82-2.86c-48.48,0-96.95,0-145.43,0c-0.47,0-1.05-0.16-1.39,0.05c-0.58,0.37-1.4,0.97-1.42,1.5  c-0.12,3.96-0.06,7.92-0.06,11.98C103.34,56.27,153.62,56.27,204.06,56.27z M102.53,182.31c-0.46-0.44-0.83-0.8-1.21-1.16  c-4.63-4.3-9.27-8.59-13.89-12.9c-2.05-1.91-1.93-3.76,0.31-5.46c1.75-1.32,3.51-2.63,5.26-3.95c3.13-2.35,6.25-4.69,9.39-7.05  c-6.78-6.89-19.89-8.37-28.82,0.09c-8.52,8.08-8.68,21.71-0.38,30.07C81.2,190.02,94.86,190.23,102.53,182.31z M109.78,152.15  c-6.08,4.56-12.06,9.05-18.13,13.61c5.95,5.52,11.72,10.87,17.49,16.22C116.02,174.83,116.33,160.77,109.78,152.15z"></path>	<path class="st0" d="M91.03,113.59c-6.21,0-12.43-0.04-18.64,0.02c-1.78,0.02-3.09-0.59-4.13-2.04c-6.46-8.99-7.89-18.71-3.5-28.86  c4.42-10.2,12.46-16.14,23.58-17.13c12.25-1.09,21.84,3.92,27.8,14.6c5.94,10.64,4.85,21.25-2.1,31.25  c-1.08,1.55-2.46,2.2-4.38,2.18C103.45,113.55,97.24,113.59,91.03,113.59z M104.24,108.89c1.78,0,3.29,0.08,4.79-0.04  c0.57-0.05,1.3-0.4,1.63-0.86c3.7-5.16,5.14-10.97,4.23-17.2c-2.05-13.99-14.9-22.93-28.77-20.2  c-16.8,3.31-24.74,23.53-14.65,37.36c0.28,0.38,0.74,0.87,1.14,0.89c1.7,0.1,3.41,0.04,5.36,0.04c-0.52-6.29,0.16-12.04,5.86-15.78  c-3.33-5.82-3.02-10.38,0.86-13.81c3.44-3.04,8.45-3.26,12.13-0.54c1.83,1.35,3.06,3.14,3.6,5.35c0.81,3.3-0.01,6.27-2.14,8.94  C104.03,96.9,104.76,102.57,104.24,108.89z M82.69,108.77c5.6,0,11.19,0,16.84,0c0-1.97,0.16-3.91-0.04-5.8  c-0.28-2.7-1.74-4.76-4.07-6.17c-2.32-1.4-4.98-1.11-7.27-0.53c-3.2,0.81-5.07,3.41-5.43,6.76  C82.52,104.89,82.69,106.78,82.69,108.77z M91.15,81.57c-2.75-0.02-5,2.2-4.99,4.94c0.01,2.69,2.17,4.87,4.87,4.9  c2.78,0.03,5-2.17,4.99-4.93C96.01,83.78,93.84,81.59,91.15,81.57z"></path>	<path class="st0" d="M139.87,97.92c0.89,0,1.51,0,2.14,0c13.27,0,26.54,0,39.8,0.01c0.62,0,1.27-0.01,1.85,0.17  c1.13,0.35,1.7,1.19,1.6,2.39c-0.1,1.19-0.81,1.89-1.97,2.1c-0.41,0.07-0.83,0.04-1.25,0.04c-14.31,0-28.63,0-42.94,0  c-2.97,0-3.93-0.96-3.94-3.95c-0.01-9.98,0-19.95,0-29.93c0-0.26-0.01-0.52,0.01-0.78c0.11-1.56,1.07-2.6,2.39-2.58  c1.34,0.01,2.28,1.03,2.29,2.63c0.03,3.76,0.01,7.52,0.01,11.28c0,0.82,0,1.64,0,2.83c3.13-2.28,6-4.31,8.78-6.47  c0.35-0.27,0.23-1.22,0.22-1.86c-0.07-3.42,2.27-6.24,5.68-6.83c3.06-0.52,6.32,1.37,7.21,4.46c0.37,1.29,0.3,2.79,0.05,4.13  c-0.18,0.94-0.17,1.56,0.56,2.17c0.36,0.3,0.67,0.67,0.95,1.04c0.97,1.31,1.99,2.3,3.87,1.67c0.66-0.22,1.67-0.07,2.27,0.31  c1.4,0.87,2.31,0.24,3.28-0.65c0.42-0.39,0.89-0.73,1.36-1.06c1.6-1.15,2.76-2.17,2.6-4.67c-0.26-4,3.58-6.84,7.63-6.26  c3.7,0.52,6.26,4.3,5.41,7.97c-0.92,3.97-4.83,6.21-8.67,4.84c-1.01-0.36-1.65-0.2-2.37,0.46c-0.61,0.56-1.29,1.06-1.96,1.56  c-1.57,1.16-2.88,2.15-2.68,4.66c0.21,2.66-1.58,4.68-4.16,5.68c-2.52,0.98-4.87,0.52-6.84-1.28c-2.03-1.85-2.76-4.21-1.87-6.83  c0.38-1.11,0.12-1.75-0.63-2.44c-0.42-0.39-0.83-0.81-1.15-1.28c-0.82-1.19-1.75-1.66-3.28-1.27c-0.88,0.23-2.01-0.02-2.88-0.4  c-1.06-0.45-1.77-0.32-2.66,0.35c-3.21,2.42-6.51,4.72-9.7,7.16c-0.51,0.39-0.94,1.23-0.96,1.88  C139.81,92,139.87,94.86,139.87,97.92z M157.46,73.59c0.01-1.09-0.88-2-1.94-2c-1.07,0.01-1.99,0.94-1.93,2.01  c0.06,1.16,0.76,1.79,1.87,1.91C156.52,75.62,157.44,74.69,157.46,73.59z M183.27,72.71c-1.1-0.02-2.05,0.86-1.98,1.93  c0.07,1.11,0.68,1.86,1.84,1.92c1.24,0.06,1.93-0.67,2.06-1.85C185.3,73.65,184.37,72.73,183.27,72.71z M169.49,87.05  c0-1.04-0.97-2-2.01-1.98c-1.04,0.02-2.02,1.01-1.93,2.04c0.1,1.13,0.79,1.79,1.91,1.89C168.5,89.09,169.48,88.09,169.49,87.05z"></path>	<path class="st0" d="M91.02,119.45c5.95,0,11.91-0.01,17.86,0c3.18,0.01,4.45,1.27,4.46,4.47c0.02,2.92,0.02,5.85,0,8.77  c-0.03,2.96-1.39,4.34-4.32,4.35c-11.96,0.01-23.92,0.01-35.88,0c-2.87,0-4.25-1.38-4.26-4.2c-0.02-3.13-0.02-6.27,0-9.4  c0.02-2.63,1.32-3.96,3.96-3.98C78.91,119.43,84.97,119.45,91.02,119.45z M73.67,132.2c11.72,0,23.27,0,34.88,0  c0-2.71,0-5.3,0-7.96c-11.66,0-23.23,0-34.88,0C73.67,126.92,73.67,129.51,73.67,132.2z"></path>	<path class="st0" d="M162.36,119.74c4.65,0,9.3-0.02,13.95,0.01c2.91,0.01,4.21,1.33,4.23,4.21c0.01,2.77,0.02,5.54,0,8.31  c-0.02,2.59-1.37,4.03-3.94,4.04c-9.51,0.04-19.02,0.03-28.53,0c-2.61-0.01-3.93-1.38-3.96-3.99c-0.03-2.87-0.03-5.75,0-8.62  c0.03-2.63,1.34-3.93,4-3.94C152.85,119.71,157.61,119.74,162.36,119.74z M148.87,131.49c9.09,0,17.99,0,26.86,0  c0-2.41,0-4.68,0-6.92c-9.02,0-17.92,0-26.86,0C148.87,126.93,148.87,129.17,148.87,131.49z"></path>	<path class="st0" d="M168.8,147.47c-2.92,0-5.84,0.01-8.76,0c-1.83-0.01-2.91-0.89-2.91-2.33c-0.01-1.43,1.09-2.37,2.89-2.38  c5.89-0.02,11.78-0.02,17.68,0c1.78,0.01,2.87,0.99,2.83,2.43c-0.04,1.39-1.08,2.26-2.81,2.27  C174.75,147.48,171.78,147.47,168.8,147.47z"></path>	<path class="st0" d="M168.8,157.5c-2.97,0-5.94,0.02-8.92-0.01c-1.7-0.01-2.75-0.93-2.76-2.32c-0.01-1.39,1.06-2.36,2.74-2.37  c6-0.02,11.99-0.02,17.99,0c1.66,0.01,2.71,1.02,2.67,2.42c-0.04,1.34-1.06,2.25-2.65,2.26C174.85,157.52,171.83,157.5,168.8,157.5  z"></path>	<path class="st0" d="M168.96,167.53c-3.02,0-6.05,0.02-9.07-0.01c-1.7-0.01-2.75-0.93-2.76-2.32c0-1.39,1.07-2.36,2.74-2.36  c6-0.02,11.99-0.02,17.99,0c1.66,0.01,2.71,1.03,2.67,2.43c-0.04,1.34-1.06,2.24-2.66,2.25  C174.9,167.55,171.93,167.53,168.96,167.53z"></path>	<path class="st0" d="M148.46,147.45c-0.73,0-1.46,0.05-2.19-0.01c-1.25-0.11-2.02-0.81-2.14-2.08c-0.13-1.35,0.56-2.34,1.84-2.49  c1.75-0.19,3.55-0.19,5.3-0.02c1.28,0.12,2.04,1.1,1.94,2.43c-0.1,1.3-0.9,2.08-2.24,2.16  C150.13,147.49,149.3,147.45,148.46,147.45C148.46,147.45,148.46,147.45,148.46,147.45z"></path>	<path class="st0" d="M148.69,157.49c-0.78,0-1.57,0.04-2.34-0.01c-1.33-0.09-2.11-0.82-2.22-2.16c-0.1-1.29,0.74-2.37,2.08-2.46  c1.61-0.11,3.23-0.1,4.84-0.01c1.33,0.08,2.24,1.18,2.19,2.41c-0.05,1.23-0.99,2.15-2.36,2.23  C150.15,157.53,149.42,157.49,148.69,157.49z"></path>	<path class="st0" d="M148.7,167.52c-0.78,0-1.57,0.04-2.34-0.01c-1.33-0.09-2.11-0.81-2.23-2.16c-0.11-1.29,0.73-2.38,2.07-2.47  c1.66-0.11,3.34-0.13,5,0.02c1.29,0.12,2.07,1.05,2.02,2.37c-0.05,1.3-0.83,2.12-2.17,2.23  C150.26,167.57,149.48,167.52,148.7,167.52z"></path>	<path class="st0" d="M105.21,51.88c-13.27,0-26.53,0-39.8,0c-0.57,0-1.16,0.03-1.72-0.06c-1.19-0.18-2.03-1-1.88-2.11  c0.11-0.82,0.83-1.68,1.49-2.28c0.38-0.34,1.19-0.25,1.81-0.25c26.79-0.01,53.58-0.01,80.38,0c0.62,0,1.44-0.09,1.81,0.25  c0.66,0.6,1.38,1.46,1.48,2.29c0.14,1.11-0.7,1.92-1.9,2.1c-0.56,0.08-1.15,0.05-1.72,0.05C131.84,51.88,118.52,51.88,105.21,51.88  z"></path>	<path class="st0" d="M174.6,51.88c-1.83,0-2.85-0.82-2.85-2.32c0-1.48,1.07-2.38,2.83-2.38c1.77,0,2.85,0.89,2.85,2.36  C177.44,51.04,176.42,51.88,174.6,51.88z"></path>	<path class="st0" d="M183.49,51.88c-1.77,0-2.88-0.89-2.89-2.32c0-1.42,1.16-2.38,2.88-2.38c1.74,0,2.87,0.93,2.87,2.37  C186.36,51.01,185.29,51.88,183.49,51.88z"></path>	<path class="st0" d="M192.39,51.88c-1.84,0-2.86-0.86-2.83-2.37c0.03-1.49,1.12-2.36,2.93-2.32c1.68,0.03,2.76,0.94,2.78,2.34  C195.29,50.98,194.18,51.88,192.39,51.88z"></path></g></svg>