<svg xmlns="http://www.w3.org/2000/svg" xmlns:xlink="http://www.w3.org/1999/xlink" id="Layer_1" x="0px" y="0px" viewBox="0 0 257 231" style="enable-background:new 0 0 257 231;" xml:space="preserve"><style type="text/css">	.st0{fill:#79CAEB;}</style><g>	<path class="st0" d="M205.23,50.95c0,27.41,0,54.82,0,82.23c-0.9,0.92-2.01,1.23-3.26,1.22c-2.55-0.02-5.09-0.01-7.64,0  c-1.8,0.01-1.95,0.16-1.95,2c-0.01,4.15,0.02,8.3-0.01,12.45c-0.02,2.74-0.51,5.38-2,7.74c-2.77,4.43-6.82,6.64-12,6.66  c-13.83,0.04-27.65,0.03-41.48-0.01c-1.38,0-1.99,0.37-1.95,1.86c0.08,3.25,0.08,6.5,0,9.75c-0.03,1.4,0.53,1.91,1.86,1.79  c0.59-0.06,1.2-0.01,1.8-0.01c9.68,0,19.37-0.03,29.05,0.02c5.93,0.03,10.56,4.22,11.22,10c0.26,2.23-0.67,3.3-2.9,3.34  c-0.4,0.01-0.8,0-1.2,0c-35.14,0-70.28,0-105.42,0c-0.5,0-1,0.01-1.5-0.01c-2-0.07-2.87-1.07-2.7-3.09  c0.44-5.07,4.05-9.06,9.05-10.05c1.74-0.34,3.48-0.21,5.22-0.22c9.23-0.02,18.47-0.01,27.7,0c1.03,0,1.9-0.03,1.88-1.45  c-0.04-3.5-0.03-7-0.01-10.5c0.01-1.03-0.45-1.45-1.45-1.42c-1.1,0.03-2.2,0-3.29,0c-12.93,0-25.86,0.03-38.78-0.02  c-7.56-0.03-13.67-5.92-13.68-13.25c-0.03-24.26-0.02-48.51,0.02-72.77c0.01-4.26,1.87-7.7,5.16-10.37  c2.87-2.33,6.25-2.99,9.82-2.99c8.29-0.01,16.57,0,24.86-0.01c1.92,0,2.06-0.14,2.06-2.04c0.02-5.75,0.01-11.5,0.03-17.25  C93.76,41.5,94.25,41,97.32,41c13.13,0,26.26,0,39.38,0c18.47,0,36.94,0,55.41,0c2.76,0,3.44,0.69,3.49,3.45  c0.02,1.25,0.03,2.5,0.02,3.75c-0.01,1.07,0.5,1.54,1.56,1.53c1.55-0.02,3.1,0.04,4.64-0.01C203.14,49.68,204.28,50,205.23,50.95z   M144.75,120.85c14.67,0,29.34,0,44.01,0c2.26,0,2.29-0.04,2.29-2.24c0.01-18.85,0.02-37.7,0.03-56.55c0-2.4-0.02-2.43-2.43-2.43  c-29.29,0-58.58,0-87.88,0c-2.44,0-2.51,0.07-2.51,2.54c0,18.75,0.01,37.5,0.02,56.25c0,2.38,0.05,2.42,2.45,2.42  C115.41,120.85,130.08,120.85,144.75,120.85z M121.99,137.29c21.01,0,42.02,0,63.03,0c0.5,0,1-0.02,1.5-0.01  c1.01,0.03,1.25-0.55,1.25-1.44c0-0.91-0.31-1.44-1.28-1.44c-0.6,0-1.2-0.01-1.8-0.01c-25.3,0-50.6,0-75.9,0c-0.6,0-1.2,0-1.8,0  c-2.79-0.03-3.58-0.81-3.62-3.56c-0.01-1.2-0.05-2.4,0.01-3.6c0.06-1.27-0.41-1.83-1.73-1.78c-1.74,0.07-3.49,0.04-5.24,0  c-1.88-0.04-2.63-0.79-2.7-2.64c-0.02-0.6-0.01-1.2-0.01-1.8c0.01-16.85,0.02-33.7,0.02-50.55c0-1.95-0.08-2.03-2.03-2.03  c-8.43,0-16.87,0.07-25.3-0.02c-5.99-0.06-10.14,4-10.08,10.08c0.16,18.8,0.07,37.6,0.08,56.4c0,2.4,0.01,2.4,2.43,2.4  C79.87,137.29,100.93,137.29,121.99,137.29z M122.27,141.91c-20.91,0-41.81,0-62.72,0c-0.55,0-1.1,0.03-1.65,0  c-1.08-0.05-1.53,0.47-1.52,1.54c0.03,2.35,0.03,4.7,0.04,7.05c0,0.81,0.22,1.58,0.51,2.33c1.47,3.75,4.64,5.79,9.07,5.79  c37.32,0.01,74.65,0,111.97,0c0.35,0,0.7,0,1.05-0.01c4.15-0.13,7.66-3.09,8.47-7.17c0.55-2.77,0.18-5.58,0.25-8.38  c0.02-0.73-0.39-1.11-1.11-1.13c-0.6-0.02-1.2-0.02-1.8-0.02C163.98,141.91,143.12,141.91,122.27,141.91z M144.74,55.09  c14.52,0,29.04,0,43.56,0c0.55,0,1.1-0.01,1.65-0.02c0.72-0.02,1.11-0.39,1.12-1.12c0.01-2.4,0.01-4.8,0.01-7.2  c0-0.8-0.44-1.18-1.22-1.21c-0.55-0.02-1.1-0.03-1.65-0.03c-28.99,0-57.98,0-86.97,0c-0.45,0-0.9,0.02-1.35,0.01  c-1.13-0.04-1.65,0.48-1.64,1.62c0.02,1.7,0,3.4,0,5.1c0,2.84,0,2.84,2.77,2.84C115.6,55.09,130.17,55.09,144.74,55.09z   M154.34,129.78c14.62,0,29.24,0,43.87,0c2.51,0,2.51,0,2.51-2.47c0.01-18.8,0.01-37.6,0.02-56.4c0-0.5-0.02-1-0.05-1.5  c-0.02-0.37-0.16-0.75-0.53-0.83c-1.32-0.28-2.73-0.47-3.97,0.06c-0.98,0.42-0.55,1.61-0.55,2.46c-0.02,16.6,0,33.2,0,49.8  c0,0.75,0.01,1.5-0.08,2.25c-0.17,1.45-0.99,2.25-2.47,2.29c-0.65,0.02-1.3,0.02-1.95,0.02c-26.8,0-53.6,0-80.4,0  c-0.55,0-1.1,0-1.65,0.01c-0.42,0.01-0.88,0.09-0.98,0.53c-0.25,1.08-0.38,2.23,0.04,3.24c0.38,0.92,1.42,0.52,2.17,0.52  C125,129.79,139.67,129.78,154.34,129.78z M121.9,185.38c16.56,0,33.13,0,49.69-0.01c0.61,0,1.48,0.32,1.77-0.38  c0.3-0.72-0.44-1.27-0.91-1.75c-1.49-1.53-3.37-1.97-5.46-1.97c-21.35,0.02-42.71,0.01-64.06,0.01c-8.73,0-17.46,0.01-26.19-0.01  c-1.94,0-3.65,0.5-5.05,1.87c-0.52,0.51-1.34,1.1-1.08,1.84c0.27,0.77,1.24,0.39,1.89,0.39  C88.97,185.38,105.44,185.38,121.9,185.38z M121.95,163.27c-2.29,0-4.59,0.02-6.88-0.01c-1.01-0.01-1.45,0.41-1.44,1.43  c0.02,3.5,0.02,6.99,0,10.49c-0.01,1,0.39,1.46,1.42,1.46c4.58-0.02,9.17-0.02,13.75,0c1.07,0.01,1.55-0.43,1.55-1.51  c-0.02-3.45-0.02-6.89,0-10.34c0.01-1.19-0.58-1.55-1.67-1.53C126.44,163.3,124.2,163.27,121.95,163.27z M200.73,59.06  c0.01,0,0.02,0,0.02,0c0-0.45,0-0.9,0-1.35c0-3.64-0.05-3.66-3.68-3.43c-1,0.06-1.45,0.48-1.45,1.47c0.01,1.55-0.02,3.09,0,4.64  c0.03,3.59-0.56,3.5,3.82,3.42c0.86-0.02,1.28-0.46,1.28-1.3C200.73,61.36,200.73,60.21,200.73,59.06z"></path>	<path class="st0" d="M102.43,84.76c0-4.55-0.01-9.1,0-13.65c0.01-2.46,0.73-3.29,3.2-3.3c8.68-0.04,17.36-0.04,26.05,0  c2.32,0.01,3.14,0.91,3.15,3.25c0.03,9.2,0.03,18.4,0.01,27.6c0,2.25-0.85,3.07-3.11,3.07c-8.78,0.02-17.56,0.02-26.35,0  c-2.17,0-2.96-0.82-2.97-3.02c-0.02-4.65-0.01-9.3-0.01-13.95C102.42,84.76,102.43,84.76,102.43,84.76z M130.27,84.71  C130.27,84.71,130.27,84.71,130.27,84.71c0.01-3.55-0.03-7.09,0.03-10.64c0.02-1.31-0.47-1.75-1.75-1.74  c-6.58,0.04-13.16,0.05-19.74,0c-1.39-0.01-1.82,0.52-1.81,1.86c0.04,7.04,0.05,14.08,0.01,21.13c-0.01,1.36,0.48,1.85,1.84,1.84  c6.53-0.04,13.06-0.05,19.59,0c1.47,0.01,1.89-0.57,1.86-1.96C130.22,91.7,130.27,88.21,130.27,84.71z"></path>	<path class="st0" d="M135.13,106.98c8.38,0,16.76,0,25.15,0c2.42,0,3.52,0.73,3.5,2.29c-0.02,1.53-1.19,2.32-3.54,2.32  c-16.71,0.01-33.43,0-50.14,0c-0.25,0-0.5,0-0.75-0.01c-1.76-0.11-2.74-0.96-2.73-2.35c0.01-1.42,0.97-2.24,2.77-2.24  C117.97,106.98,126.55,106.99,135.13,106.98z"></path>	<path class="st0" d="M162.32,101.74c-5.53,0-11.07,0-16.6,0c-0.6,0-1.21,0.02-1.78-0.11c-1.02-0.23-1.67-0.9-1.75-1.97  c-0.08-1.14,0.48-1.9,1.53-2.3c0.67-0.25,1.37-0.22,2.07-0.22c11.07,0,22.13,0,33.2,0c0.59,0,1.21,0.01,1.78,0.15  c1.15,0.29,1.8,1.06,1.74,2.28c-0.06,1.22-0.78,1.92-1.95,2.1c-0.54,0.09-1.09,0.06-1.64,0.06  C173.38,101.75,167.85,101.74,162.32,101.74z"></path>	<path class="st0" d="M162.3,82.21c-5.49,0-10.97,0-16.46,0c-0.6,0-1.21,0.01-1.79-0.1c-1.17-0.24-1.86-0.99-1.86-2.2  c0-1.2,0.7-1.96,1.87-2.19c0.53-0.11,1.09-0.09,1.64-0.09c11.07,0,22.15,0,33.22,0c0.6,0,1.21-0.01,1.78,0.12  c1.08,0.25,1.77,0.94,1.79,2.1c0.03,1.23-0.66,1.97-1.8,2.24c-0.57,0.13-1.19,0.13-1.78,0.13  C173.37,82.21,167.84,82.21,162.3,82.21z"></path>	<path class="st0" d="M162.4,87.47c5.74,0,11.48,0,17.21,0c0.8,0,1.6,0.02,2.24,0.63c1.17,1.13,0.76,3.1-0.78,3.68  c-0.76,0.29-1.57,0.27-2.37,0.27c-10.88,0-21.75,0-32.63-0.01c-0.65,0-1.3-0.03-1.93-0.15c-1.33-0.26-2.08-1.22-1.93-2.43  c0.16-1.3,0.97-1.95,2.23-1.97c2.04-0.04,4.09-0.02,6.14-0.03C154.52,87.46,158.46,87.46,162.4,87.47z"></path>	<path class="st0" d="M162.39,72.34c-5.53,0-11.06,0-16.6,0c-0.55,0-1.1,0.02-1.64-0.05c-1.12-0.15-1.83-0.79-1.94-1.94  c-0.11-1.21,0.49-2.04,1.65-2.34c0.71-0.18,1.48-0.22,2.22-0.22c10.87-0.01,21.73-0.01,32.6,0c0.69,0,1.4,0.03,2.08,0.18  c1.18,0.27,1.79,1.08,1.73,2.29c-0.07,1.22-0.81,1.9-2,2.04c-0.64,0.07-1.29,0.05-1.94,0.05  C173.16,72.34,167.78,72.34,162.39,72.34z"></path>	<path class="st0" d="M72.66,105.07c-0.77,1.72,0.45,2.42,1.6,3.2c1.44,0.98,2.88,1.98,4.26,3.05c0.8,0.62,1.49,0.66,2.46,0.31  c2.68-0.97,5.27-0.67,7.37,1.39c1.96,1.93,2.35,4.35,1.53,6.94c-0.97,3.07-3.99,4.75-7.52,4.27c-3.04-0.41-5.43-2.93-5.36-6.06  c0.04-1.85-0.6-2.98-2.12-3.89c-1.32-0.79-2.56-1.73-3.78-2.69c-0.87-0.68-1.65-0.79-2.73-0.39c-5.21,1.89-9.91-2.03-9.04-7.45  c0.64-3.99,4.9-6.33,8.99-4.8c1.16,0.44,1.95,0.25,2.86-0.44c1.35-1.03,2.71-2.05,4.15-2.95c1.24-0.77,1.67-1.73,1.66-3.21  c-0.04-4.25,3.55-7.16,7.72-6.42c3.92,0.7,6.22,4.06,5.42,7.92c-0.78,3.73-4.5,6.14-8.2,4.9c-1.93-0.65-3.2-0.2-4.59,0.93  c-1.04,0.85-2.15,1.64-3.29,2.35C72.9,102.76,72.03,103.53,72.66,105.07z M85.63,92.41c-0.01-1.11-0.87-1.98-1.98-2.02  c-1.2-0.03-2.08,0.84-2.07,2.05c0,1.21,0.73,1.94,1.95,1.95C84.83,94.42,85.64,93.65,85.63,92.41z M65.85,107.02  c1.28,0,2.14-0.8,2.07-1.99c-0.07-1.24-0.81-1.89-2.01-1.95c-1.23-0.06-2.06,0.8-2.04,2.03C63.9,106.32,64.62,107.01,65.85,107.02z   M85.63,117.74c-0.01-1.19-0.75-1.92-1.98-1.95c-1.32-0.02-2.09,0.72-2.06,1.99c0.03,1.19,0.77,1.87,2.04,1.86  C84.88,119.64,85.63,118.92,85.63,117.74z"></path>	<path class="st0" d="M74.78,155.76c-3.13-0.01-5.5-2.41-5.45-5.52c0.05-3.03,2.43-5.39,5.45-5.4c3.07-0.01,5.57,2.44,5.56,5.48  C80.33,153.4,77.9,155.78,74.78,155.76z"></path></g></svg>