<svg xmlns="http://www.w3.org/2000/svg" xmlns:xlink="http://www.w3.org/1999/xlink" id="Layer_1" x="0px" y="0px" viewBox="0 0 257 231" style="enable-background:new 0 0 257 231;" xml:space="preserve"><style type="text/css">	.st0{fill:#79CAEB;}</style><g>	<path class="st0" d="M62.86,27c5.65,0,11.3,0,16.95,0c0.05,1.26,0.1,2.53,0.15,3.79c0.06,1.32,0.54,2.57,1.9,2.74  c1,0.12,2.2-0.25,3.1-0.78c0.99-0.58,1.73-1.59,2.67-2.5c2.33,2.36,4.56,4.54,6.67,6.81c0.98,1.05,1.99,1.47,3.45,1.47  c26.11-0.05,52.21-0.02,78.32-0.05c2.89,0,5.55,0.6,8.1,2.01c10.49,5.78,21.01,11.49,31.51,17.23c0.38,0.21,0.74,0.46,1.29,0.8  c-0.72,0.42-1.24,0.74-1.78,1.03c-8.44,4.6-16.87,9.23-25.33,13.78c-1.1,0.59-1.53,1.22-1.52,2.51  c0.05,13.54,0.03,27.09,0.03,40.63c0,0.61,0,1.21,0,1.79c2.22,0.18,2.23,0.18,2.7,2.08c0.69,2.73,1.34,5.48,2.07,8.2  c0.12,0.45,0.59,0.81,0.9,1.21c0.31-0.41,0.79-0.77,0.91-1.22c0.89-3.33,1.71-6.67,2.55-10.05c4.56,0,9.03,0,13.54,0  c0.05,0.32,0.12,0.54,0.12,0.76c0.01,7.26,0.05,14.52-0.02,21.78c-0.03,3.01-1.36,5.43-3.88,7.14c-1.14,0.78-2.27,1.59-3.46,2.29  c-0.86,0.51-1.09,1.1-1.02,2.11c0.57,7.41,1.05,14.83,1.57,22.24c0.28,3.96,0.6,7.91,0.91,12.02c1.9,0,3.68-0.02,5.46,0  c3.74,0.06,6.03,2.34,6.09,6.04c0.02,1.38,0.01,2.77,0,4.15c-0.01,4.96-2.05,6.99-7.07,6.99c-50.43,0-100.85,0-151.28,0  c-4.98,0-7.04-2.07-7.04-7.03c0-37.46-0.01-74.92,0.02-112.38c0-1.18-0.28-2.04-1.16-2.87c-2.42-2.29-4.75-4.67-7.31-7.21  c1.09-1,2.24-1.71,2.89-2.75c0.51-0.8,0.77-2.14,0.44-2.97c-0.29-0.75-1.45-1.43-2.34-1.62c-1.27-0.27-2.63-0.05-3.96-0.04  c0-5.76,0-11.53,0-17.29c1.2,0.03,2.46,0.27,3.6,0.01c1-0.23,2.16-0.82,2.74-1.62c0.75-1.04,0.37-2.33-0.63-3.26  c-0.87-0.81-1.77-1.59-2.45-2.2c4.22-4.21,8.2-8.17,12.41-12.37c0.54,0.63,1.19,1.43,1.88,2.19c0.97,1.06,2.12,1.6,3.54,0.96  c1.32-0.59,1.77-1.7,1.73-3.09C62.83,29.3,62.86,28.15,62.86,27z M57.14,198.09c32.44,0,64.67,0,97,0c0-1.75-0.01-3.36,0-4.96  c0.02-4.03,2.28-6.27,6.35-6.31c1.71-0.01,3.41,0,5.13,0c0.1-0.56,0.18-0.89,0.21-1.23c0.72-10.11,1.28-20.24,2.25-30.33  c0.31-3.24-0.62-5.07-3.4-6.49c-3.59-1.85-4.97-5.02-4.92-9.01c0.09-6.45,0.02-12.91,0.02-19.36c0-0.61,0-1.23,0-2.02  c4.25,0,8.27,0.04,12.29-0.03c1.09-0.02,1.51,0.38,1.74,1.37c0.68,2.91,1.39,5.82,2.17,8.71c0.13,0.49,0.65,0.89,0.99,1.32  c0.3-0.42,0.75-0.79,0.88-1.25c0.68-2.5,1.31-5.01,1.89-7.53c0.35-1.54,0.48-3.19,2.75-2.65c0-13.71,0-27.22,0-40.5  c-2.42,0.23-4.74,0.65-7.06,0.65c-25.99,0.05-51.98,0.04-77.98,0c-1.19,0-2.04,0.32-2.87,1.18c-2.27,2.37-4.62,4.65-7.34,7.37  c-0.78-0.98-1.47-1.91-2.22-2.77c-0.89-1.01-2.03-1.31-3.29-0.81c-1.29,0.51-1.76,1.58-1.78,2.89c-0.01,1.13,0,2.27,0,3.49  c-5.79,0-11.35,0-17.1,0c0-1.1,0.01-2.12,0-3.14c-0.02-2.2-1.15-3.52-2.95-3.47c-1.69,0.05-2.76,1.36-2.76,3.41  c0,36.54,0,73.08,0,109.61C57.14,196.85,57.14,197.47,57.14,198.09z M176.86,44.36c-0.59-0.03-1.1-0.09-1.6-0.09  c-25.36,0-50.71,0-76.07,0c-1.78,0-3.05,1.11-3.11,2.69c-0.07,1.69,1.18,2.88,3.11,2.94c1.13,0.04,2.27,0.01,3.63,0.01  c0,2.05,0,3.86,0,5.63c24.82,0,49.4,0,74.03,0C176.86,51.77,176.86,48.11,176.86,44.36z M102.77,67.08c-1.35,0-2.38-0.02-3.41,0  c-2.05,0.04-3.35,1.22-3.28,2.95c0.07,1.63,1.36,2.7,3.29,2.7c25.24,0,50.48,0,75.71,0c0.56,0,1.12-0.05,1.73-0.08  c0-3.82,0-7.51,0-11.21c-24.72,0-49.29,0-74.04,0C102.77,63.33,102.77,65.09,102.77,67.08z M199.54,186.74  c-0.82-11.42-1.63-22.71-2.44-34.04c-7.82,0-15.45,0-23.21,0c-0.81,11.38-1.62,22.66-2.44,34.04  C180.83,186.74,190.03,186.74,199.54,186.74z M205.43,124.21c-1.32,0-2.35,0-3.45,0c-0.97,3.81-1.93,7.57-2.9,11.33  c-3.11,0-5.99-0.04-8.87,0.02c-1.05,0.02-1.36-0.42-1.58-1.35c-0.69-2.97-1.45-5.92-2.26-8.87c-0.12-0.45-0.6-0.81-0.91-1.21  c-0.3,0.41-0.76,0.78-0.89,1.25c-0.81,3-1.52,6.03-2.35,9.02c-0.13,0.45-0.75,1.07-1.15,1.08c-3.04,0.09-6.09,0.05-9.2,0.05  c-0.98-3.85-1.92-7.58-2.87-11.31c-1.18,0-2.25,0-3.46,0c0,4.3-0.03,8.49,0.01,12.69c0.06,6.51-0.78,5,4.72,8.81  c1.3,0.9,2.59,1.26,4.16,1.25c7.44-0.06,14.87-0.06,22.31,0c1.45,0.01,2.64-0.32,3.84-1.16c5.66-3.93,4.77-2.29,4.84-9.09  C205.46,132.59,205.43,128.46,205.43,124.21z M55.34,78.67c6.31-2.41,9.81-1.09,12.81,4.73c0.17,0.33,0.65,0.68,1,0.69  c1.77,0.07,3.55,0.03,5.25,0.03c1.82-5.01,6.1-7.85,10.33-6.29c2.6,0.96,3.89,0.09,5.29-1.63c0.14-0.18,0.31-0.35,0.49-0.49  c0.95-0.71,1.1-1.41,0.56-2.61c-1.62-3.6-0.24-8.06,3.04-10.24c0.9-0.6,1.93-0.99,2.93-1.49c0-1.93,0-3.88,0-5.86  c-0.52-0.19-1-0.36-1.47-0.56c-3.82-1.64-6.27-6.1-4.81-9.95c0.93-2.45,0.15-3.67-1.51-4.98c-0.22-0.18-0.44-0.38-0.61-0.61  c-0.72-0.91-1.41-1.11-2.62-0.58c-4.28,1.87-9.22-0.24-11.06-4.55c-0.2-0.46-0.38-0.93-0.59-1.44c-1.68,0-3.3-0.07-4.9,0.04  c-0.48,0.03-1.2,0.48-1.34,0.89c-1.57,4.73-7.44,7.15-11.94,4.88c-0.36-0.18-1.11-0.02-1.45,0.26c-1.28,1.06-2.48,2.23-3.6,3.27  c2.55,6.38,1.09,10.28-4.6,13.07c-0.33,0.16-0.73,0.61-0.74,0.94c-0.07,1.77-0.03,3.53-0.03,5.23c6.21,2.1,8.19,7.87,5.6,12.96  C52.71,75.85,54.04,77.27,55.34,78.67z M211.1,192.72c-17.11,0-34.12,0-51.18,0c0,1.89,0,3.64,0,5.36c17.14,0,34.16,0,51.18,0  C211.1,196.22,211.1,194.51,211.1,192.72z M182.61,46.18c0,4.37,0,8.34,0,12.3c0,4,0,7.99,0,12.32c3.83-2.08,7.35-3.97,10.83-5.93  c0.33-0.19,0.54-0.85,0.55-1.29c0.04-3.39,0.04-6.78,0-10.18c-0.01-0.44-0.22-1.1-0.55-1.28  C189.96,50.16,186.43,48.27,182.61,46.18z M199.88,55.59c0,2.06,0,3.8,0,5.81c1.8-0.98,3.41-1.86,5.31-2.9  C203.3,57.47,201.69,56.59,199.88,55.59z"></path>	<path class="st0" d="M108.5,112.63c2,0,3.71,0,5.67,0c0-1.67-0.01-3.27,0-4.86c0.04-4.29,2.22-6.45,6.54-6.45  c8.99,0,17.98-0.01,26.97,0c4.26,0,6.45,2.21,6.46,6.52c0.01,7.03,0.01,14.06,0,21.09c-0.01,4.33-2.27,6.58-6.63,6.6  c-3.34,0.02-6.68,0.03-10.02,0.05c-0.1,0-0.2,0.09-0.4,0.19c0,3.61,0,7.27,0,11.18c2.93,0,5.8,0.16,8.64-0.03  c7.07-0.48,8.66,2.86,8.47,8.41c-0.22,6.39-0.05,12.79-0.05,19.19c-0.01,4.36-2.25,6.64-6.58,6.64c-8.93,0.01-17.87,0.01-26.8,0  c-4.34-0.01-6.58-2.26-6.59-6.63c-0.01-7.03-0.02-14.06,0-21.09c0.01-4.32,2.19-6.48,6.5-6.49c3.34-0.01,6.68-0.01,10.03-0.02  c0.11,0,0.22-0.05,0.48-0.12c0-3.66,0-7.36,0-11.27c-3.28,0-6.55,0-9.81,0c-5.16,0-7.19-2.05-7.19-7.25c0-3.22,0-6.44,0-9.79  c-1.9,0-3.65,0-5.57,0c-0.03,0.53-0.09,1.08-0.09,1.64c-0.01,3.11,0.02,6.22-0.01,9.34c-0.04,3.51-2.3,6-5.77,6.03  c-9.45,0.08-18.9,0.07-28.35,0c-3.43-0.02-5.76-2.36-5.79-5.81c-0.08-7.55-0.08-15.1,0.01-22.65c0.04-3.55,2.42-5.72,6-5.73  c9.28-0.02,18.56-0.02,27.84,0c3.71,0.01,6.02,2.32,6.08,6.03C108.52,109.07,108.5,110.79,108.5,112.63z M102.64,129.7  c0-7.64,0-15.1,0-22.64c-9.49,0-18.85,0-28.24,0c0,7.61,0,15.12,0,22.64C83.85,129.7,93.18,129.7,102.64,129.7z M120.02,107.06  c0,7.57,0,15.08,0,22.6c9.48,0,18.84,0,28.27,0c0-7.57,0-15.03,0-22.6C138.83,107.06,129.47,107.06,120.02,107.06z M148.29,175.33  c0-7.62,0-15.08,0-22.61c-9.5,0-18.89,0-28.29,0c0,7.59,0,15.05,0,22.61C129.44,175.33,138.79,175.33,148.29,175.33z"></path>	<path class="st0" d="M102.66,147.08c0,1.81,0,3.56,0,5.41c-11.34,0-22.6,0-33.99,0c0-1.77,0-3.52,0-5.41  C79.98,147.08,91.27,147.08,102.66,147.08z"></path>	<path class="st0" d="M102.66,158.49c0,1.82,0,3.57,0,5.42c-11.35,0-22.61,0-34,0c0-1.78,0-3.53,0-5.42  C79.99,158.49,91.28,158.49,102.66,158.49z"></path>	<path class="st0" d="M97.03,169.9c0,1.85,0,3.55,0,5.39c-9.45,0-18.85,0-28.37,0c0-1.75,0-3.5,0-5.39  C78.08,169.9,87.47,169.9,97.03,169.9z"></path>	<path class="st0" d="M96.99,186.76c-5.7,0-11.26,0-16.93,0c0-1.82,0-3.58,0-5.46c5.65,0,11.24,0,16.93,0  C96.99,183.09,96.99,184.84,96.99,186.76z"></path>	<path class="st0" d="M154,95.44c-1.84,0-3.63,0-5.51,0c0-1.86,0-3.6,0-5.44c1.86,0,3.61,0,5.51,0C154,91.77,154,93.56,154,95.44z"></path>	<path class="st0" d="M159.91,89.98c1.91,0,3.67,0,5.54,0c0,1.82,0,3.57,0,5.44c-1.83,0-3.63,0-5.54,0  C159.91,93.64,159.91,91.9,159.91,89.98z"></path>	<path class="st0" d="M176.89,90.05c0,1.79,0,3.49,0,5.35c-1.81,0-3.61,0-5.55,0c0-1.71,0-3.45,0-5.35  C173.11,90.05,174.9,90.05,176.89,90.05z"></path>	<path class="st0" d="M68.65,181.26c1.93,0,3.68,0,5.53,0c0,1.84,0,3.58,0,5.45c-1.83,0-3.62,0-5.53,0  C68.65,184.92,68.65,183.17,68.65,181.26z"></path>	<path class="st0" d="M91.34,58.49c0,11.04-9.03,20.05-20.02,20c-10.91-0.05-19.87-9.06-19.88-19.98  c-0.01-11,9.09-20.07,20.03-19.99C82.47,38.61,91.34,47.53,91.34,58.49z M71.33,72.72c7.9,0.03,14.32-6.32,14.34-14.19  c0.02-7.79-6.32-14.2-14.1-14.26c-7.94-0.06-14.31,6.18-14.4,14.11C57.07,66.24,63.44,72.69,71.33,72.72z"></path>	<path class="st0" d="M79.92,58.72c-0.12,4.66-3.99,8.42-8.61,8.35c-4.77-0.07-8.58-4.07-8.45-8.88c0.13-4.6,4.13-8.4,8.71-8.26  C76.34,50.07,80.04,53.97,79.92,58.72z M71.39,61.3c1.6,0.01,2.87-1.25,2.86-2.82c-0.01-1.57-1.31-2.82-2.9-2.79  c-1.52,0.03-2.72,1.22-2.76,2.74C68.56,60.03,69.79,61.29,71.39,61.3z"></path></g></svg>