<svg xmlns="http://www.w3.org/2000/svg" xmlns:xlink="http://www.w3.org/1999/xlink" id="Layer_1" x="0px" y="0px" viewBox="0 0 257 231" style="enable-background:new 0 0 257 231;" xml:space="preserve"><style type="text/css">	.st0{fill:#79CAEB;}</style><g>	<path class="st0" d="M64.57,199c-1.24-0.38-2.53-0.63-3.71-1.15c-5.91-2.59-9.1-7.16-9.61-13.59c-0.05-0.59-0.03-1.2-0.03-1.79  c0-28.32,0-56.64,0-84.96c0-4.71,2.06-6.78,6.74-6.78c3.08,0,6.17,0,9.32,0c0.06-0.69,0.1-1.22,0.16-1.75  c0.26-2.44,2.18-4.43,4.62-4.46c6.79-0.08,13.59-0.06,20.38-0.03c1.56,0.01,2.5,1.02,2.49,2.43c-0.01,1.43-1.01,2.42-2.69,2.44  c-4.35,0.05-8.7,0.02-13.05,0.02c-2.22,0-4.44,0-6.79,0c0,25.8,0,51.48,0,77.37c0.53,0.03,1.1,0.08,1.67,0.08  c3.86,0.01,7.72-0.01,11.58,0.02c1.42,0.01,2.58,0.72,2.58,2.15c0,0.84-0.74,1.81-1.4,2.48c-0.35,0.36-1.24,0.24-1.88,0.24  c-3.59,0.02-7.18,0.01-10.76,0.01c-0.58,0-1.17,0-1.88,0c0,3.36-0.06,6.5,0.07,9.64c0.02,0.48,0.9,0.98,1.45,1.36  c0.22,0.15,0.63,0.04,0.96,0.04c16.47,0,32.94,0,49.41,0c0.53,0,1.07,0,1.61,0c-0.37-5.17-5.45-10.34-10.99-10.78  c-4.81-0.38-9.66-0.2-14.5-0.26c-1.36-0.02-2.72,0.03-4.08-0.04c-1.39-0.07-2.2-0.86-2.33-2.25c-0.12-1.34,0.76-2.32,2.2-2.56  c0.11-0.02,0.22-0.04,0.32-0.03c5.92,0.03,11.85-0.07,17.77,0.12c4.59,0.14,8.44,2.21,11.86,5.58c0-10.06,0-19.9,0-29.95  c-1.76,0-3.53,0.01-5.3,0c-7.87-0.03-13.46-5.53-13.57-13.4c-0.05-3.75-0.03-7.5,0-11.25c0.03-3.89,2.27-6.14,6.21-6.19  c3.42-0.05,6.85-0.01,10.27-0.01c0.59,0,1.18,0,1.9,0c0-0.93,0-1.71,0-2.78c-0.96,0-1.96,0-2.96,0c-6.02,0.02-11.04-4.9-9.43-12.95  c0.32-1.62,1.83-2.74,3.63-2.72c2.9,0.03,5.8,0.23,8.79,0.37c0-2.17,0-4.75,0-7.59c-2.74,1.44-5.31,2.8-7.89,4.15  c-1.3,0.68-2.59,1.38-3.89,2.04c-1.75,0.89-3.46,0.87-5.06-0.33c-1.6-1.21-2.04-2.87-1.71-4.79c0.82-4.71,1.6-9.42,2.48-14.12  c0.24-1.29,0.02-2.18-0.99-3.13c-3.42-3.19-6.71-6.51-10.08-9.75c-1.47-1.41-2.35-2.98-1.72-5.08c0.65-2.15,2.23-3.1,4.35-3.36  c0.75-0.09,1.5-0.23,2.26-0.31c1.47-0.15,2.65,0.71,2.87,2.05c0.2,1.24-0.63,2.39-2.01,2.72c-0.67,0.16-1.35,0.27-2.52,0.49  c0.89,0.78,1.56,1.31,2.17,1.9c3.04,2.95,6.06,5.93,9.11,8.88c1.45,1.4,1.97,2.98,1.59,5.01c-0.84,4.43-1.55,8.88-2.31,13.32  c-0.09,0.52-0.1,1.06-0.17,1.86c3.29-1.72,6.35-3.31,9.42-4.92c1.25-0.65,2.54-1.25,3.74-1.99c2.06-1.28,4.02-1.21,6.13-0.04  c3.8,2.1,7.67,4.07,11.52,6.09c0.47,0.25,0.96,0.46,1.75,0.83c-0.43-2.65-0.81-5.03-1.21-7.41c-0.44-2.62-0.84-5.26-1.37-7.86  c-0.4-1.96,0.18-3.5,1.58-4.85c3.28-3.17,6.54-6.37,9.8-9.57c0.37-0.37,0.72-0.76,1.28-1.35c-4.85-0.71-9.42-1.51-14.03-2.01  c-2.89-0.31-4.78-1.5-5.99-4.21c-1.93-4.3-4.13-8.48-6.33-12.94c-0.35,0.62-0.61,1.04-0.83,1.49c-2,4.04-4.02,8.06-5.96,12.13  c-0.92,1.93-2.29,3.11-4.45,3.32c-0.92,0.09-1.83,0.34-2.74,0.37c-1.35,0.04-2.31-0.58-2.58-1.98c-0.26-1.36,0.48-2.75,1.85-2.74  c2.96,0.02,4.01-1.83,5.03-4.12c1.52-3.42,3.33-6.71,4.91-10.11c0.79-1.69,1.83-3.04,3.59-3.77c0.76,0,1.52,0,2.28,0  c1.76,0.73,2.79,2.08,3.59,3.77c1.98,4.17,4.1,8.27,6.08,12.43c0.46,0.96,1.04,1.32,2.08,1.46c4.9,0.65,9.78,1.42,14.67,2.12  c2.02,0.29,3.41,1.33,4.01,3.31c0.59,1.95-0.13,3.5-1.51,4.85c-3.54,3.45-7.11,6.88-10.6,10.39c-0.47,0.47-0.78,1.42-0.68,2.07  c0.74,4.83,1.56,9.65,2.43,14.45c0.37,2.05,0.04,3.82-1.68,5.1c-1.71,1.27-3.5,1.14-5.35,0.14c-3.81-2.05-7.67-4.03-11.73-6.15  c0,2.83,0,5.43,0,7.74c2.75-0.15,5.53-0.39,8.31-0.42c2.65-0.03,4.14,1.46,4.28,4.09c0.16,2.94-0.14,5.77-2.14,8.14  c-1.86,2.2-4.24,3.34-7.11,3.44c-1.08,0.04-2.16,0.01-3.37,0.01c0,0.93,0,1.75,0,2.78c2.76,0,5.46-0.01,8.17,0  c1.63,0,3.27-0.06,4.89,0.07c3.1,0.25,5.24,2.46,5.29,5.56c0.07,4.35,0.12,8.7-0.05,13.04c-0.25,6.53-5.88,11.96-12.43,12.16  c-1.78,0.06-3.56,0.01-5.43,0.01c0,10.01,0,19.86,0,29.93c0.63-0.55,1.1-0.98,1.58-1.38c3.58-2.97,7.71-4.32,12.34-4.31  c12.61,0.02,25.22,0.01,37.83,0.01c0.64,0,1.27,0,2.1,0c0-0.83,0-1.47,0-2.1c0-6.47,0-12.94,0-19.41c0-0.6-0.01-1.2,0.1-1.78  c0.25-1.29,1.08-1.99,2.41-1.96c1.32,0.03,2.12,0.76,2.31,2.06c0.09,0.59,0.06,1.19,0.06,1.79c0,11.52-0.12,23.05,0.06,34.57  c0.08,5.01-3,7.73-7.65,7.72c-35.77-0.11-71.53-0.11-107.3,0c-4.85,0.02-7.73-2.84-7.71-7.65c0.12-27.4,0.06-54.79,0.06-82.19  c0-0.69,0-1.39,0-2.25c-3.54,0-6.89-0.03-10.25,0.04c-0.35,0.01-0.8,0.57-0.99,0.97c-0.17,0.36-0.04,0.85-0.04,1.29  c0,28.16,0,56.31,0,84.47c0,7.5,4.22,11.71,11.71,11.71c40.44,0,80.88,0,121.32,0c7.51,0,11.73-4.2,11.73-11.7  c0-28.16,0-56.31,0-84.47c0-2.32,0-2.32-2.32-2.32c-2.81,0-5.62,0-8.62,0c0,0.81,0,1.45,0,2.08c0,11.52,0,23.05,0,34.57  c0,2.5-0.79,3.69-2.42,3.7c-1.64,0-2.47-1.22-2.47-3.68c0-13.53,0-27.07,0-40.6c0-0.7,0-1.4,0-2.32c-0.71,0-1.29,0-1.87,0  c-5.82,0-11.63,0.03-17.45-0.03c-0.87-0.01-1.97-0.2-2.53-0.75c-0.53-0.53-0.91-1.83-0.61-2.43c0.37-0.75,1.46-1.56,2.29-1.61  c2.92-0.2,5.87-0.08,8.8-0.09c3.42,0,6.85-0.01,10.27,0c3.92,0.01,5.66,1.61,6,5.48c0.02,0.21,0.07,0.41,0.14,0.78  c3.06,0,6.08,0,9.11,0c4.44,0.01,6.56,2.14,6.57,6.62c0,28.27,0,56.53,0,84.8c0,9.12-4.19,14.47-13.07,16.69  c-0.1,0.02-0.18,0.11-0.27,0.17C149.81,199,107.19,199,64.57,199z M128.2,116.62c-4.72,0-9.44,0-14.17,0c-0.05,0-0.11,0.01-0.16,0  c-1.33-0.15-1.82,0.42-1.79,1.78c0.07,3.58-0.01,7.16,0.03,10.75c0.06,5.14,3.49,8.53,8.63,8.54c4.94,0.02,9.88,0.01,14.82,0  c5.17-0.01,8.61-3.36,8.68-8.5c0.05-3.58-0.05-7.17,0.04-10.75c0.04-1.48-0.55-1.86-1.92-1.84  C137.64,116.66,132.92,116.62,128.2,116.62z M185.02,171.9c-0.36-0.08-0.56-0.17-0.77-0.17c-13.41,0-26.83-0.13-40.24,0.08  c-5.88,0.09-9.93,3.36-12.11,8.83c-0.25,0.62-0.33,1.3-0.53,2.11c0.71,0,1.19,0,1.68,0c16.51,0,33.02,0,49.53,0  c0.33,0,0.74,0.12,0.96-0.04c0.55-0.4,1.4-0.9,1.42-1.39C185.09,178.19,185.02,175.05,185.02,171.9z M117.98,98.29  c-0.45,4.48,2.23,6.43,7.53,5.61C126.4,99.69,123.52,97.51,117.98,98.29z M130.76,103.89c5.45,0.81,8.48-1.49,7.51-5.62  C132.81,97.54,130.27,99.4,130.76,103.89z"></path>	<path class="st0" d="M160.98,155.4c-5.54,0-11.08,0.05-16.62-0.06c-0.82-0.02-1.9-0.62-2.36-1.3c-0.37-0.54-0.26-1.77,0.14-2.36  c0.4-0.6,1.39-1,2.18-1.11c1.22-0.18,2.49-0.06,3.74-0.06c9.39,0,18.79,0,28.18,0c0.54,0,1.09-0.03,1.63,0.03  c1.56,0.16,2.51,1.13,2.48,2.49c-0.03,1.36-1.02,2.32-2.58,2.35c-2.61,0.05-5.21,0.02-7.82,0.02  C166.96,155.4,163.97,155.4,160.98,155.4z"></path>	<path class="st0" d="M166.17,143c-3.8,0-7.6,0.04-11.4-0.02c-2.11-0.03-3.4-1.89-2.37-3.47c0.43-0.66,1.45-1.32,2.21-1.33  c7.71-0.1,15.42-0.08,23.12-0.04c1.64,0.01,2.66,1.1,2.61,2.52c-0.05,1.4-1.07,2.32-2.78,2.33C173.77,143.03,169.97,143,166.17,143  z"></path>	<path class="st0" d="M168.27,118.19c-2.99,0-5.98,0.02-8.97-0.01c-1.9-0.01-3.03-0.96-3.03-2.44c0.01-1.48,1.16-2.44,3.05-2.44  c5.98-0.02,11.96-0.01,17.94,0c1.94,0,3.05,0.89,3.09,2.38c0.05,1.55-1.09,2.49-3.11,2.5C174.25,118.2,171.26,118.19,168.27,118.19  z"></path>	<path class="st0" d="M168.24,130.58c-2.99,0-5.98,0.01-8.97-0.01c-1.88-0.01-3.03-0.97-3-2.46c0.03-1.43,1.14-2.41,2.91-2.42  c6.09-0.03,12.17-0.03,18.26,0c1.8,0.01,2.87,0.96,2.9,2.42c0.03,1.51-1.08,2.44-2.98,2.46  C174.33,130.6,171.28,130.58,168.24,130.58z"></path>	<path class="st0" d="M170.28,47.61c-0.64-0.51-1.58-0.9-1.84-1.56c-0.28-0.73-0.27-1.97,0.19-2.52c1.82-2.2,3.81-4.28,5.86-6.29  c0.98-0.96,2.22-0.84,3.21,0.13c0.98,0.97,1.09,2.18,0.18,3.21c-1.86,2.11-3.81,4.14-5.78,6.15  C171.72,47.11,171.07,47.24,170.28,47.61z"></path>	<path class="st0" d="M176.11,60.03c0.97,0,1.95-0.03,2.92,0.01c1.38,0.06,2.21,0.79,2.37,2.18c0.15,1.33-0.7,2.53-2.08,2.62  c-2.1,0.13-4.22,0.13-6.32,0.01c-1.39-0.08-2.25-1.25-2.13-2.58c0.13-1.39,0.94-2.15,2.32-2.23  C174.16,59.99,175.14,60.03,176.11,60.03z"></path>	<path class="st0" d="M96.2,155.4c-5.43,0-10.86-0.01-16.29,0.01c-1.33,0.01-2.35-0.4-2.82-1.73c-0.42-1.22,0.28-2.6,1.57-2.96  c0.66-0.19,1.39-0.2,2.09-0.2c10.37-0.01,20.75-0.01,31.12-0.01c0.33,0,0.65-0.01,0.98,0.01c1.75,0.09,2.86,1.06,2.86,2.48  c-0.01,1.43-1.11,2.39-2.89,2.4C107.28,155.41,101.74,155.4,96.2,155.4z"></path>	<path class="st0" d="M90.99,143.01c-3.64,0-7.27,0.01-10.91-0.01c-1.95-0.01-3.05-0.87-3.09-2.35c-0.05-1.55,1.1-2.52,3.11-2.53  c7.38-0.01,14.77-0.02,22.15,0c1.88,0,3.03,0.98,3.03,2.46c0,1.48-1.13,2.41-3.04,2.42C98.48,143.02,94.73,143.01,90.99,143.01z"></path>	<path class="st0" d="M88.94,118.19c-2.99,0-5.98,0.02-8.97-0.01c-1.9-0.01-3.02-0.96-2.99-2.46c0.02-1.51,1.13-2.42,3.05-2.42  c5.98-0.02,11.96-0.01,17.94,0c1.91,0,3.05,0.92,3.09,2.4c0.04,1.53-1.13,2.47-3.15,2.48C94.92,118.2,91.93,118.19,88.94,118.19z"></path>	<path class="st0" d="M88.89,130.58c-2.99,0-5.98,0.01-8.97-0.01c-1.81-0.01-2.89-0.89-2.94-2.34c-0.05-1.51,1.07-2.53,2.94-2.54  c6.03-0.03,12.06-0.02,18.1,0c1.88,0.01,3.03,0.99,3.03,2.46c0,1.48-1.13,2.4-3.04,2.41C94.98,130.6,91.93,130.58,88.89,130.58z"></path>	<path class="st0" d="M88.73,45.27c-0.4,0.5-0.79,1.44-1.45,1.71c-0.72,0.29-2.02,0.3-2.51-0.17c-2.16-2.03-4.18-4.23-6.12-6.48  c-0.79-0.91-0.56-2.07,0.3-2.95c0.8-0.81,1.98-1.2,2.78-0.42c2.32,2.24,4.46,4.67,6.65,7.05C88.58,44.23,88.56,44.63,88.73,45.27z"></path>	<path class="st0" d="M80.55,60.03c0.97,0,1.95-0.04,2.92,0.01c1.38,0.08,2.21,0.83,2.33,2.22c0.11,1.4-0.64,2.43-1.96,2.54  c-2.2,0.18-4.43,0.18-6.63-0.01c-1.32-0.11-2.06-1.16-1.93-2.56c0.13-1.39,0.98-2.13,2.35-2.19C78.6,60,79.58,60.03,80.55,60.03z"></path></g></svg>